M48
; DRILL file {KiCad 7.0.5} date mer 14 giu 2023, 02:28:00
; FORMAT={-:-/ absolute / inch / decimal}
; #@! TF.CreationDate,2023-06-14T02:28:00+02:00
; #@! TF.GenerationSoftware,Kicad,Pcbnew,7.0.5
; #@! TF.FileFunction,Plated,1,4,PTH
FMAT,2
INCH
; #@! TA.AperFunction,Plated,PTH,ViaDrill
T1C0.0098
; #@! TA.AperFunction,Plated,PTH,ViaDrill
T2C0.0118
; #@! TA.AperFunction,Plated,PTH,ComponentDrill
T3C0.0236
; #@! TA.AperFunction,Plated,PTH,ComponentDrill
T4C0.0315
; #@! TA.AperFunction,Plated,PTH,ComponentDrill
T5C0.0374
; #@! TA.AperFunction,Plated,PTH,ComponentDrill
T6C0.0394
; #@! TA.AperFunction,Plated,PTH,ComponentDrill
T7C0.0669
; #@! TA.AperFunction,Plated,PTH,ComponentDrill
T8C0.1575
%
G90
G05
T1
X2.9213Y-2.2283
X2.9213Y-2.2657
X2.9823Y-2.439
X3.0217Y-2.439
X3.0217Y-4.8661
X3.0571Y-4.8661
X3.061Y-2.439
X3.122Y-2.2657
X3.4055Y-4.4173
X3.4055Y-4.5728
X3.4409Y-4.5728
X3.6545Y-2.5059
X3.6545Y-2.5423
X3.7008Y-3.9016
X3.7008Y-3.937
X3.7333Y-4.9026
X4.1713Y-2.2283
X4.1713Y-2.2657
X4.2323Y-2.439
X4.2717Y-2.439
X4.311Y-2.439
X4.372Y-2.2657
X4.6654Y-4.435
X4.6998Y-4.4232
X4.7343Y-4.435
X4.7687Y-4.4232
X4.8031Y-4.435
X4.8327Y-4.6575
X4.8327Y-4.7323
X4.9045Y-2.5059
X4.9045Y-2.5423
X5.0965Y-4.0965
X5.0965Y-4.1319
X5.1083Y-3.4941
X5.1083Y-3.5295
X5.124Y-3.9469
X5.1594Y-3.9469
X5.187Y-3.7795
X5.187Y-3.815
X5.2638Y-5.2933
X5.2756Y-3.8681
X5.2756Y-3.9035
X5.2953Y-3.8091
X5.3051Y-3.9921
X5.311Y-3.9547
X5.3248Y-5.1201
X5.3307Y-3.8091
X5.3484Y-3.9469
X5.3642Y-4.2815
X5.3642Y-5.1201
X5.3996Y-4.2815
X5.4035Y-5.1201
X5.4213Y-2.2283
X5.4213Y-2.2657
X5.4626Y-3.9882
X5.4646Y-5.2933
X5.4646Y-5.3307
X5.4823Y-2.439
X5.498Y-3.9882
X5.5217Y-2.439
X5.561Y-2.439
X5.5748Y-3.7795
X5.5748Y-3.8602
X5.5748Y-3.9469
X5.5748Y-4.065
X5.622Y-2.2657
X5.6568Y-3.7795
X5.6568Y-4.065
X5.6575Y-4.1831
X5.6575Y-4.2185
X5.6594Y-3.5669
X5.6594Y-3.6024
X5.7388Y-3.7795
X5.7388Y-4.065
X5.7421Y-4.2224
X5.7421Y-4.2579
X5.8209Y-3.7795
X5.8209Y-3.8747
X5.8209Y-3.9698
X5.8209Y-4.065
X6.1545Y-2.5059
X6.1545Y-2.5423
X6.1831Y-5.1201
X6.2205Y-5.1201
X6.3622Y-5.3366
X6.3622Y-5.374
X6.4094Y-5.1201
X6.4469Y-5.1201
X6.4469Y-5.3366
X6.4469Y-5.374
X6.6634Y-5.1201
X6.6634Y-5.3366
X6.6634Y-5.374
X6.6713Y-2.2283
X6.6713Y-2.2657
X6.7008Y-5.1201
X6.7323Y-2.439
X6.748Y-5.3366
X6.748Y-5.374
X6.7717Y-2.439
X6.811Y-2.439
X6.872Y-2.2657
X6.8898Y-5.1201
X6.9272Y-5.1201
X7.1594Y-3.5256
X7.2234Y-3.2067
X7.2579Y-4.3642
X7.2589Y-3.2067
X7.2726Y-3.3219
X7.3081Y-3.3219
X7.3091Y-3.4114
X7.3583Y-3.3602
X7.3583Y-3.3957
X7.4085Y-2.5069
X7.4085Y-2.5423
X7.4085Y-3.3219
X7.4094Y-4.25
X7.4439Y-3.3219
X7.4587Y-3.2067
X7.4941Y-3.2067
X7.9213Y-2.2283
X7.9213Y-2.2657
X7.9823Y-2.439
X8.0217Y-2.439
X8.061Y-2.439
X8.122Y-2.2657
X8.6555Y-2.5059
X8.6555Y-2.5423
T2
X2.1713Y-2.0866
X2.1713Y-2.2747
X2.1713Y-2.4628
X2.1713Y-2.6509
X2.1713Y-2.839
X2.1713Y-3.0271
X2.1713Y-3.2152
X2.1713Y-3.4033
X2.1713Y-3.5914
X2.1713Y-3.7795
X2.1713Y-3.9676
X2.1713Y-4.1557
X2.1713Y-4.3438
X2.1713Y-4.5319
X2.1713Y-4.72
X2.1713Y-4.9081
X2.1713Y-5.0962
X2.1713Y-5.2843
X2.1713Y-5.4724
X2.2441Y-2.1555
X2.2441Y-2.3802
X2.2441Y-2.605
X2.2441Y-2.8297
X2.2441Y-3.0545
X2.2441Y-3.2792
X2.2441Y-3.5039
X2.3228Y-3.5827
X2.3228Y-3.878
X2.3228Y-4.7638
X2.3228Y-5.0591
X2.3228Y-5.3543
X2.3524Y-4.1535
X2.373Y-2.082
X2.373Y-5.477
X2.4114Y-4.0354
X2.4311Y-4.4685
X2.4409Y-3.5039
X2.4705Y-4.0354
X2.5177Y-2.0059
X2.5177Y-5.5532
X2.5787Y-3.563
X2.5938Y-1.8612
X2.5938Y-5.6978
X2.5984Y-1.6594
X2.5984Y-5.8996
X2.6181Y-4.7638
X2.6181Y-5.0591
X2.6181Y-5.3543
X2.6788Y-1.7421
X2.6791Y-1.9409
X2.68Y-3.7205
X2.7067Y-2.1358
X2.7067Y-2.3681
X2.7067Y-2.6004
X2.7067Y-2.8327
X2.7067Y-3.065
X2.7067Y-3.2972
X2.7657Y-2.5846
X2.7849Y-1.6594
X2.7849Y-5.8996
X2.8051Y-3.3957
X2.8825Y-3.7205
X2.9035Y-1.7421
X2.9039Y-1.9409
X2.9134Y-2.5846
X2.9134Y-2.815
X2.9134Y-2.9921
X2.9134Y-3.2874
X2.9134Y-4.1732
X2.9134Y-5.0591
X2.9134Y-5.3543
X2.9134Y-5.6496
X2.9213Y-2.3031
X2.9429Y-4.8701
X2.9528Y-4.5433
X2.9713Y-1.6594
X2.9713Y-5.8996
X2.9921Y-4.0748
X3.0217Y-2.1457
X3.0217Y-3.3957
X3.0217Y-4.5433
X3.061Y-2.5846
X3.061Y-2.7756
X3.0807Y-4.1732
X3.0849Y-3.7205
X3.0906Y-4.5433
X3.1201Y-2.1457
X3.122Y-2.3031
X3.1283Y-1.7421
X3.1286Y-1.9409
X3.1577Y-1.6594
X3.1577Y-5.8996
X3.185Y-4.5374
X3.185Y-4.5768
X3.2087Y-2.5846
X3.2087Y-2.9921
X3.2087Y-3.2874
X3.2087Y-5.0197
X3.2087Y-5.3543
X3.2087Y-5.6496
X3.2343Y-4.5374
X3.2343Y-4.5768
X3.2382Y-2.7362
X3.2382Y-3.3957
X3.2835Y-4.5374
X3.2835Y-4.5768
X3.3071Y-3.5433
X3.3071Y-3.7205
X3.3238Y-4.8327
X3.3327Y-4.5374
X3.3327Y-4.5768
X3.3441Y-1.6594
X3.3441Y-5.8996
X3.353Y-1.7421
X3.3917Y-4.1634
X3.3917Y-4.2323
X3.3917Y-4.3012
X3.3917Y-4.3701
X3.4646Y-2.4016
X3.4843Y-2.6969
X3.5039Y-2.9921
X3.5039Y-3.2874
X3.5039Y-3.5827
X3.5039Y-3.878
X3.5039Y-5.3543
X3.5039Y-5.6496
X3.5306Y-1.6594
X3.5306Y-5.8996
X3.5768Y-4.4488
X3.5768Y-4.5098
X3.5778Y-1.7421
X3.622Y-4.7953
X3.6516Y-4.252
X3.6516Y-4.4685
X3.6516Y-4.6949
X3.6909Y-4.7953
X3.717Y-1.6594
X3.717Y-5.8996
X3.7992Y-2.1457
X3.7992Y-2.4016
X3.7992Y-2.6969
X3.7992Y-3.0315
X3.7992Y-3.2874
X3.7992Y-3.5827
X3.7992Y-3.878
X3.7992Y-5.0591
X3.7992Y-5.3543
X3.7992Y-5.6496
X3.8025Y-1.7421
X3.8028Y-1.9409
X3.8091Y-4.7224
X3.8681Y-4.7224
X3.9021Y-4.2776
X3.9026Y-4.3819
X3.9034Y-1.6594
X3.9034Y-5.8996
X3.9496Y-4.3297
X3.9567Y-4.7972
X3.997Y-4.2776
X3.9975Y-4.3819
X4.0157Y-2.5846
X4.0256Y-2.2047
X4.0256Y-2.4016
X4.0272Y-1.7421
X4.0276Y-1.9409
X4.0445Y-4.3297
X4.0899Y-1.6594
X4.0899Y-5.8996
X4.092Y-4.2776
X4.0925Y-4.3819
X4.0945Y-3.878
X4.0945Y-4.1732
X4.0945Y-5.6496
X4.1043Y-5.128
X4.1043Y-5.3543
X4.1395Y-4.3297
X4.1634Y-2.5846
X4.1713Y-2.3031
X4.187Y-4.2776
X4.187Y-4.3819
X4.1929Y-2.7657
X4.252Y-1.7421
X4.2523Y-1.9409
X4.2717Y-2.1457
X4.2763Y-1.6594
X4.2763Y-5.8996
X4.311Y-2.5846
X4.311Y-2.7657
X4.3701Y-2.1457
X4.372Y-2.3031
X4.3898Y-4.1732
X4.3898Y-4.4685
X4.3898Y-4.7638
X4.3898Y-5.128
X4.3898Y-5.3543
X4.3898Y-5.6496
X4.4291Y-2.7657
X4.4587Y-2.5846
X4.4627Y-1.6594
X4.4627Y-5.8996
X4.4767Y-1.7421
X4.477Y-1.9409
X4.6063Y-5.3543
X4.6063Y-5.6496
X4.6358Y-4.1732
X4.6358Y-4.6949
X4.6457Y-4.9508
X4.6491Y-1.6594
X4.6491Y-5.8996
X4.685Y-2.4016
X4.685Y-2.6969
X4.685Y-3.0413
X4.685Y-3.2874
X4.685Y-3.5827
X4.685Y-4.9508
X4.685Y-5.128
X4.7014Y-1.7421
X4.7844Y-4.9508
X4.8327Y-4.6949
X4.8327Y-4.9508
X4.8356Y-1.6594
X4.8356Y-5.8996
X4.872Y-4.5866
X4.9016Y-2.1457
X4.9114Y-5.315
X4.9262Y-1.7421
X4.9409Y-4.5866
X4.9803Y-2.6969
X4.9803Y-3.0413
X4.9803Y-5.128
X5.0098Y-4.5866
X5.0098Y-4.7638
X5.022Y-1.6594
X5.022Y-5.8996
X5.0295Y-2.4409
X5.0886Y-5.6496
X5.1063Y-3.5866
X5.1083Y-4.9724
X5.1509Y-1.7421
X5.1512Y-1.9409
X5.1673Y-3.5866
X5.2084Y-1.6594
X5.2084Y-5.8996
X5.2559Y-4.7638
X5.2559Y-4.9724
X5.2638Y-5.2559
X5.2657Y-2.5846
X5.2657Y-5.6496
X5.2756Y-2.2146
X5.2756Y-2.4016
X5.2756Y-2.8839
X5.3031Y-4.1693
X5.3642Y-5.3445
X5.3661Y-4.1693
X5.3757Y-1.7421
X5.376Y-1.9409
X5.3949Y-1.6594
X5.3949Y-5.8996
X5.4035Y-4.7638
X5.4035Y-4.9724
X5.4134Y-2.5846
X5.4134Y-2.8346
X5.4213Y-2.3031
X5.4311Y-4.1693
X5.4646Y-5.2559
X5.4941Y-4.1693
X5.5217Y-2.1457
X5.5276Y-3.7776
X5.5276Y-3.8406
X5.5315Y-2.7657
X5.5512Y-4.7638
X5.5512Y-4.9724
X5.561Y-2.5846
X5.5709Y-3.5335
X5.5709Y-5.3248
X5.5709Y-5.6496
X5.5813Y-1.6594
X5.5813Y-5.8996
X5.5906Y-4.2815
X5.6007Y-1.7421
X5.601Y-1.9409
X5.6201Y-2.1457
X5.622Y-2.3031
X5.6594Y-2.6772
X5.7087Y-2.5846
X5.7677Y-1.6594
X5.7677Y-5.8996
X5.8255Y-1.7421
X5.8661Y-2.4016
X5.8661Y-2.6673
X5.8661Y-3.2874
X5.8661Y-3.878
X5.8661Y-4.7638
X5.8661Y-5.128
X5.8661Y-5.3543
X5.8661Y-5.6496
X5.9541Y-1.6594
X5.9541Y-5.8996
X6.0502Y-1.7421
X6.126Y-5.6496
X6.1406Y-1.6594
X6.1406Y-5.8996
X6.1417Y-2.1457
X6.1614Y-3.2874
X6.1614Y-3.878
X6.1614Y-5.3543
X6.1811Y-4.5768
X6.2205Y-4.7638
X6.2205Y-4.9744
X6.2749Y-1.7421
X6.2753Y-1.9409
X6.3071Y-5.2559
X6.327Y-1.6594
X6.327Y-5.8996
X6.3386Y-4.5472
X6.3681Y-4.7638
X6.3681Y-4.9744
X6.4567Y-2.1063
X6.4567Y-2.4016
X6.4567Y-2.6673
X6.4567Y-3.2874
X6.4567Y-3.878
X6.4567Y-5.6496
X6.4862Y-4.5079
X6.4997Y-1.7421
X6.5Y-1.9409
X6.5079Y-5.2559
X6.5134Y-1.6594
X6.5134Y-5.8996
X6.5157Y-2.5846
X6.5157Y-4.7638
X6.5157Y-4.9744
X6.6024Y-5.2559
X6.6181Y-2.7244
X6.6339Y-4.4685
X6.6634Y-2.5846
X6.6634Y-4.7638
X6.6634Y-4.9744
X6.6713Y-2.3031
X6.6999Y-1.6594
X6.6999Y-5.8996
X6.7244Y-1.7421
X6.7247Y-1.9409
X6.752Y-3.2874
X6.752Y-3.878
X6.752Y-5.6496
X6.7618Y-2.7657
X6.7717Y-2.1457
X6.7717Y-4.4291
X6.8031Y-5.2559
X6.811Y-2.5846
X6.811Y-4.7638
X6.811Y-4.9744
X6.8701Y-2.1457
X6.872Y-2.3031
X6.878Y-5.3445
X6.878Y-5.624
X6.8863Y-1.6594
X6.8863Y-5.8996
X6.9173Y-2.8051
X6.9213Y-4.3091
X6.9213Y-4.3701
X6.9491Y-1.7421
X6.9495Y-1.9409
X6.9587Y-2.5846
X6.9587Y-4.9744
X6.9764Y-4.7638
X7.0177Y-5.2067
X7.0343Y-5.624
X7.0472Y-3.878
X7.0472Y-5.0689
X7.061Y-3.2461
X7.061Y-3.2835
X7.0727Y-1.6594
X7.0727Y-5.8996
X7.0768Y-2.6969
X7.1063Y-4.9902
X7.1437Y-5.1496
X7.1437Y-5.1969
X7.1739Y-1.7421
X7.1907Y-5.624
X7.2014Y-5.0669
X7.2047Y-2.4016
X7.2579Y-4.2323
X7.2591Y-1.6594
X7.2591Y-5.8996
X7.2835Y-4.9902
X7.313Y-3.5827
X7.3209Y-5.1496
X7.3209Y-5.1969
X7.3425Y-2.1555
X7.3425Y-3.878
X7.347Y-5.626
X7.3556Y-5.0689
X7.3986Y-1.7421
X7.4361Y-2.6969
X7.4456Y-1.6594
X7.4456Y-5.8996
X7.4606Y-4.9902
X7.498Y-5.1496
X7.498Y-5.1969
X7.5034Y-5.626
X7.5059Y-4.4921
X7.5059Y-4.5295
X7.5098Y-5.0689
X7.6234Y-1.7421
X7.6237Y-1.9409
X7.632Y-1.6594
X7.632Y-5.8996
X7.6378Y-2.1063
X7.6378Y-2.4016
X7.6378Y-2.6969
X7.6378Y-3.2874
X7.6378Y-4.1732
X7.6378Y-4.4685
X7.6378Y-4.9902
X7.6437Y-3.4055
X7.6437Y-3.4665
X7.6597Y-5.626
X7.664Y-5.0689
X7.6752Y-5.1496
X7.6752Y-5.1969
X7.7657Y-2.5846
X7.815Y-4.9902
X7.8161Y-5.626
X7.8182Y-5.0689
X7.8184Y-1.6594
X7.8184Y-5.8996
X7.8481Y-1.7421
X7.8484Y-1.9409
X7.8524Y-5.1496
X7.8524Y-5.1969
X7.9134Y-2.5846
X7.9134Y-2.7756
X7.9213Y-2.3031
X7.9331Y-3.2874
X7.9331Y-3.878
X7.9331Y-4.1732
X7.9331Y-4.4685
X7.9724Y-4.7638
X7.9724Y-5.0689
X7.9724Y-5.2077
X7.9724Y-5.3465
X7.9724Y-5.4852
X7.9724Y-5.624
X8.0049Y-1.6594
X8.0049Y-5.8996
X8.0217Y-2.1457
X8.061Y-2.5846
X8.061Y-2.7756
X8.0728Y-1.7421
X8.0732Y-1.9409
X8.1201Y-2.1457
X8.122Y-2.3031
X8.1913Y-1.6594
X8.1913Y-5.8996
X8.2087Y-2.5846
X8.2087Y-2.7756
X8.2283Y-3.2874
X8.2283Y-3.878
X8.2283Y-4.1732
X8.2283Y-4.4685
X8.2283Y-4.7638
X8.2283Y-5.0591
X8.2283Y-5.3543
X8.2283Y-5.6496
X8.2976Y-1.7421
X8.2979Y-1.9409
X8.3777Y-1.6594
X8.3777Y-5.8996
X8.4646Y-2.4016
X8.4843Y-2.6969
X8.5223Y-1.7421
X8.5236Y-2.1457
X8.5236Y-2.9921
X8.5236Y-3.2874
X8.5236Y-3.878
X8.5236Y-4.1732
X8.5236Y-4.4685
X8.5236Y-4.7638
X8.5236Y-5.0591
X8.5236Y-5.3543
X8.5236Y-5.6496
X8.5641Y-1.6594
X8.5641Y-5.8996
X8.7303Y-3.189
X8.7506Y-1.6594
X8.7506Y-5.8996
X8.8189Y-2.1457
X8.8189Y-2.4016
X8.8189Y-2.6969
X8.8189Y-2.9921
X8.8189Y-3.5827
X8.8189Y-3.878
X8.8189Y-4.1732
X8.8189Y-4.4685
X8.8189Y-4.7638
X8.8189Y-5.0591
X8.8189Y-5.3543
X8.8189Y-5.6496
X8.9272Y-3.2943
X8.9272Y-3.4843
X8.937Y-1.6594
X8.937Y-5.8996
X8.9416Y-1.8612
X8.9416Y-5.6978
X9.0177Y-2.0059
X9.0177Y-5.5532
X9.1142Y-2.4016
X9.1142Y-2.6969
X9.1142Y-2.9921
X9.1142Y-3.2874
X9.1142Y-3.5827
X9.1142Y-3.878
X9.1142Y-4.1732
X9.1142Y-4.4685
X9.1142Y-4.7638
X9.1142Y-5.3543
X9.1624Y-2.082
X9.1624Y-5.477
X9.165Y-5.048
X9.3642Y-2.0866
X9.3642Y-2.2747
X9.3642Y-2.4628
X9.3642Y-2.6509
X9.3642Y-2.839
X9.3642Y-3.0271
X9.3642Y-3.2152
X9.3642Y-3.4033
X9.3642Y-3.5914
X9.3642Y-3.7795
X9.3642Y-3.9676
X9.3642Y-4.1557
X9.3642Y-4.3438
X9.3642Y-4.5319
X9.3642Y-4.72
X9.3642Y-4.9081
X9.3642Y-5.0962
X9.3642Y-5.2843
X9.3642Y-5.4724
T3
X2.2047Y-1.811
X2.2047Y-5.748
X2.2393Y-1.7275
X2.2393Y-1.8945
X2.2393Y-5.6645
X2.2393Y-5.8315
X2.3228Y-1.6929
X2.3228Y-1.9291
X2.3228Y-5.6299
X2.3228Y-5.8661
X2.4064Y-1.7275
X2.4064Y-1.8945
X2.4064Y-5.6645
X2.4064Y-5.8315
X2.4409Y-1.811
X2.4409Y-5.748
X9.0945Y-1.811
X9.0945Y-5.748
X9.1291Y-1.7275
X9.1291Y-1.8945
X9.1291Y-5.6645
X9.1291Y-5.8315
X9.2126Y-1.6929
X9.2126Y-1.9291
X9.2126Y-5.6299
X9.2126Y-5.8661
X9.2961Y-1.7275
X9.2961Y-1.8945
X9.2961Y-5.6645
X9.2961Y-5.8315
X9.3307Y-1.811
X9.3307Y-5.748
T4
X2.447Y-3.6516
X2.5848Y-3.6516
X5.2138Y-5.4126
X5.2138Y-5.7126
X5.3138Y-5.4126
X5.3138Y-5.7126
X5.4138Y-5.4126
X5.4138Y-5.7126
X5.5138Y-5.4126
X5.5138Y-5.7126
T5
X2.7756Y-2.0276
X2.874Y-2.0276
X2.9724Y-2.0276
X3.0709Y-2.0276
X3.1693Y-2.0276
X3.2677Y-2.0276
X3.3661Y-2.0276
X3.4646Y-2.0276
X3.563Y-2.0276
X3.6614Y-2.0276
X3.7598Y-2.0276
X4.0256Y-2.0276
X4.124Y-2.0276
X4.2224Y-2.0276
X4.3209Y-2.0276
X4.4193Y-2.0276
X4.5177Y-2.0276
X4.6161Y-2.0276
X4.7146Y-2.0276
X4.813Y-2.0276
X4.9114Y-2.0276
X5.0098Y-2.0276
X5.2756Y-2.0276
X5.374Y-2.0276
X5.4724Y-2.0276
X5.5709Y-2.0276
X5.6693Y-2.0276
X5.7677Y-2.0276
X5.8661Y-2.0276
X5.9646Y-2.0276
X6.063Y-2.0276
X6.1614Y-2.0276
X6.2106Y-5.5315
X6.2598Y-2.0276
X6.3091Y-5.5315
X6.4075Y-5.5315
X6.5059Y-5.5315
X6.5256Y-2.0276
X6.6043Y-5.5315
X6.624Y-2.0276
X6.7028Y-5.5315
X6.7224Y-2.0276
X6.8012Y-5.5315
X6.8209Y-2.0276
X6.8996Y-5.5315
X6.9193Y-2.0276
X6.998Y-5.5315
X7.0177Y-2.0276
X7.0965Y-5.5315
X7.1161Y-2.0276
X7.1949Y-5.5315
X7.2146Y-2.0276
X7.2933Y-5.5315
X7.313Y-2.0276
X7.3917Y-5.5315
X7.4114Y-2.0276
X7.5098Y-2.0276
X7.7756Y-2.0276
X7.874Y-2.0276
X7.9724Y-2.0276
X8.0709Y-2.0276
X8.1693Y-2.0276
X8.2677Y-2.0276
X8.3661Y-2.0276
X8.4646Y-2.0276
X8.563Y-2.0276
X8.6614Y-2.0276
X8.7598Y-2.0276
T6
X4.5079Y-4.4638
X4.5079Y-4.5638
X4.5079Y-4.6638
X4.5079Y-4.7638
X4.5079Y-4.8638
T7
X2.5984Y-4.1929
X2.5984Y-4.3488
X2.5984Y-4.5047
X2.5984Y-4.6606
T8
X2.3228Y-1.811
X2.3228Y-5.748
X9.2126Y-1.811
X9.2126Y-5.748
T0
M30
