%TF.GenerationSoftware,KiCad,Pcbnew,(6.99.0-4444-ge62463b52b)*%
%TF.CreationDate,2022-12-13T19:15:09+01:00*%
%TF.ProjectId,bd845-pwb,62643834-352d-4707-9762-2e6b69636164,rev?*%
%TF.SameCoordinates,Original*%
%TF.FileFunction,Paste,Top*%
%TF.FilePolarity,Positive*%
%FSLAX46Y46*%
G04 Gerber Fmt 4.6, Leading zero omitted, Abs format (unit mm)*
G04 Created by KiCad (PCBNEW (6.99.0-4444-ge62463b52b)) date 2022-12-13 19:15:09*
%MOMM*%
%LPD*%
G01*
G04 APERTURE LIST*
G04 Aperture macros list*
%AMRoundRect*
0 Rectangle with rounded corners*
0 $1 Rounding radius*
0 $2 $3 $4 $5 $6 $7 $8 $9 X,Y pos of 4 corners*
0 Add a 4 corners polygon primitive as box body*
4,1,4,$2,$3,$4,$5,$6,$7,$8,$9,$2,$3,0*
0 Add four circle primitives for the rounded corners*
1,1,$1+$1,$2,$3*
1,1,$1+$1,$4,$5*
1,1,$1+$1,$6,$7*
1,1,$1+$1,$8,$9*
0 Add four rect primitives between the rounded corners*
20,1,$1+$1,$2,$3,$4,$5,0*
20,1,$1+$1,$4,$5,$6,$7,0*
20,1,$1+$1,$6,$7,$8,$9,0*
20,1,$1+$1,$8,$9,$2,$3,0*%
G04 Aperture macros list end*
%ADD10C,1.152000*%
%ADD11RoundRect,0.150000X0.150000X-0.725000X0.150000X0.725000X-0.150000X0.725000X-0.150000X-0.725000X0*%
%ADD12RoundRect,0.150000X-0.150000X0.725000X-0.150000X-0.725000X0.150000X-0.725000X0.150000X0.725000X0*%
%ADD13RoundRect,0.200000X0.275000X-0.200000X0.275000X0.200000X-0.275000X0.200000X-0.275000X-0.200000X0*%
%ADD14RoundRect,0.200000X-0.275000X0.200000X-0.275000X-0.200000X0.275000X-0.200000X0.275000X0.200000X0*%
%ADD15RoundRect,0.225000X0.250000X-0.225000X0.250000X0.225000X-0.250000X0.225000X-0.250000X-0.225000X0*%
%ADD16RoundRect,0.150000X0.512500X0.150000X-0.512500X0.150000X-0.512500X-0.150000X0.512500X-0.150000X0*%
%ADD17R,0.640000X2.000000*%
%ADD18RoundRect,0.243750X-0.456250X0.243750X-0.456250X-0.243750X0.456250X-0.243750X0.456250X0.243750X0*%
%ADD19RoundRect,0.200000X0.200000X0.275000X-0.200000X0.275000X-0.200000X-0.275000X0.200000X-0.275000X0*%
%ADD20RoundRect,0.225000X-0.250000X0.225000X-0.250000X-0.225000X0.250000X-0.225000X0.250000X0.225000X0*%
%ADD21RoundRect,0.075000X0.662500X0.075000X-0.662500X0.075000X-0.662500X-0.075000X0.662500X-0.075000X0*%
%ADD22RoundRect,0.075000X0.075000X0.662500X-0.075000X0.662500X-0.075000X-0.662500X0.075000X-0.662500X0*%
%ADD23RoundRect,0.225000X-0.225000X-0.250000X0.225000X-0.250000X0.225000X0.250000X-0.225000X0.250000X0*%
%ADD24RoundRect,0.150000X-0.150000X0.825000X-0.150000X-0.825000X0.150000X-0.825000X0.150000X0.825000X0*%
%ADD25R,2.500000X1.800000*%
%ADD26RoundRect,0.225000X0.225000X0.250000X-0.225000X0.250000X-0.225000X-0.250000X0.225000X-0.250000X0*%
%ADD27RoundRect,0.243750X0.243750X0.456250X-0.243750X0.456250X-0.243750X-0.456250X0.243750X-0.456250X0*%
%ADD28R,1.800000X2.500000*%
%ADD29RoundRect,0.150000X-0.512500X-0.150000X0.512500X-0.150000X0.512500X0.150000X-0.512500X0.150000X0*%
%ADD30RoundRect,0.250000X0.412500X0.925000X-0.412500X0.925000X-0.412500X-0.925000X0.412500X-0.925000X0*%
%ADD31R,1.700000X1.300000*%
%ADD32RoundRect,0.150000X0.587500X0.150000X-0.587500X0.150000X-0.587500X-0.150000X0.587500X-0.150000X0*%
%ADD33R,1.500000X2.000000*%
%ADD34R,3.800000X2.000000*%
%ADD35RoundRect,0.200000X-0.200000X-0.275000X0.200000X-0.275000X0.200000X0.275000X-0.200000X0.275000X0*%
%ADD36R,1.200000X1.400000*%
%ADD37RoundRect,0.250000X-0.925000X0.412500X-0.925000X-0.412500X0.925000X-0.412500X0.925000X0.412500X0*%
%ADD38R,3.050000X2.750000*%
%ADD39R,2.200000X1.200000*%
%ADD40R,4.000000X1.500000*%
%ADD41RoundRect,0.250000X-0.262500X-0.450000X0.262500X-0.450000X0.262500X0.450000X-0.262500X0.450000X0*%
G04 APERTURE END LIST*
D10*
%TO.C,REF\u002A\u002A*%
X69000000Y-147000000D03*
%TD*%
%TO.C,REF\u002A\u002A*%
X224000000Y-147000000D03*
%TD*%
%TO.C,REF\u002A\u002A*%
X224000000Y-45000000D03*
%TD*%
D11*
%TO.C,U102*%
X180555000Y-114575000D03*
X181825000Y-114575000D03*
X183095000Y-114575000D03*
X184365000Y-114575000D03*
X185635000Y-114575000D03*
X186905000Y-114575000D03*
X188175000Y-114575000D03*
X189445000Y-114575000D03*
X189445000Y-109425000D03*
X188175000Y-109425000D03*
X186905000Y-109425000D03*
X185635000Y-109425000D03*
X184365000Y-109425000D03*
X183095000Y-109425000D03*
X181825000Y-109425000D03*
X180555000Y-109425000D03*
%TD*%
D12*
%TO.C,U101*%
X189445000Y-82925000D03*
X188175000Y-82925000D03*
X186905000Y-82925000D03*
X185635000Y-82925000D03*
X184365000Y-82925000D03*
X183095000Y-82925000D03*
X181825000Y-82925000D03*
X180555000Y-82925000D03*
X180555000Y-88075000D03*
X181825000Y-88075000D03*
X183095000Y-88075000D03*
X184365000Y-88075000D03*
X185635000Y-88075000D03*
X186905000Y-88075000D03*
X188175000Y-88075000D03*
X189445000Y-88075000D03*
%TD*%
D13*
%TO.C,R105*%
X131500000Y-129075000D03*
X131500000Y-127425000D03*
%TD*%
D14*
%TO.C,R203*%
X81750000Y-109425000D03*
X81750000Y-111075000D03*
%TD*%
D15*
%TO.C,C211*%
X93750000Y-124525000D03*
X93750000Y-122975000D03*
%TD*%
D13*
%TO.C,R507*%
X79500000Y-64575000D03*
X79500000Y-62925000D03*
%TD*%
D16*
%TO.C,U901*%
X204887500Y-59450000D03*
X204887500Y-58500000D03*
X204887500Y-57550000D03*
X202612500Y-57550000D03*
X202612500Y-58500000D03*
X202612500Y-59450000D03*
%TD*%
D13*
%TO.C,R210*%
X226750000Y-82575000D03*
X226750000Y-80925000D03*
%TD*%
D17*
%TO.C,U405*%
X183019999Y-125099999D03*
X180479999Y-125099999D03*
X180479999Y-131399999D03*
X183019999Y-131399999D03*
%TD*%
D13*
%TO.C,R502*%
X74000000Y-64575000D03*
X74000000Y-62925000D03*
%TD*%
%TO.C,R417*%
X158000000Y-129075000D03*
X158000000Y-127425000D03*
%TD*%
D18*
%TO.C,F201*%
X97000000Y-111562500D03*
X97000000Y-113437500D03*
%TD*%
D13*
%TO.C,R407*%
X160000000Y-129075000D03*
X160000000Y-127425000D03*
%TD*%
D15*
%TO.C,C212*%
X100500000Y-124525000D03*
X100500000Y-122975000D03*
%TD*%
D14*
%TO.C,R510*%
X90000000Y-62925000D03*
X90000000Y-64575000D03*
%TD*%
%TO.C,R509*%
X91750000Y-62925000D03*
X91750000Y-64575000D03*
%TD*%
D13*
%TO.C,R104*%
X135250000Y-129075000D03*
X135250000Y-127425000D03*
%TD*%
D16*
%TO.C,U801*%
X173137500Y-59450000D03*
X173137500Y-58500000D03*
X173137500Y-57550000D03*
X170862500Y-57550000D03*
X170862500Y-58500000D03*
X170862500Y-59450000D03*
%TD*%
D19*
%TO.C,R208*%
X76575000Y-119250000D03*
X74925000Y-119250000D03*
%TD*%
D16*
%TO.C,U501*%
X77887500Y-59450000D03*
X77887500Y-58500000D03*
X77887500Y-57550000D03*
X75612500Y-57550000D03*
X75612500Y-58500000D03*
X75612500Y-59450000D03*
%TD*%
D13*
%TO.C,R207*%
X76750000Y-122575000D03*
X76750000Y-120925000D03*
%TD*%
%TO.C,R508*%
X83250000Y-64575000D03*
X83250000Y-62925000D03*
%TD*%
%TO.C,R802*%
X169250000Y-64575000D03*
X169250000Y-62925000D03*
%TD*%
D20*
%TO.C,C206*%
X78500000Y-112725000D03*
X78500000Y-114275000D03*
%TD*%
D21*
%TO.C,U301*%
X137162500Y-101250000D03*
X137162500Y-100750000D03*
X137162500Y-100250000D03*
X137162500Y-99750000D03*
X137162500Y-99250000D03*
X137162500Y-98750000D03*
X137162500Y-98250000D03*
X137162500Y-97750000D03*
X137162500Y-97250000D03*
X137162500Y-96750000D03*
X137162500Y-96250000D03*
X137162500Y-95750000D03*
D22*
X135750000Y-94337500D03*
X135250000Y-94337500D03*
X134750000Y-94337500D03*
X134250000Y-94337500D03*
X133750000Y-94337500D03*
X133250000Y-94337500D03*
X132750000Y-94337500D03*
X132250000Y-94337500D03*
X131750000Y-94337500D03*
X131250000Y-94337500D03*
X130750000Y-94337500D03*
X130250000Y-94337500D03*
D21*
X128837500Y-95750000D03*
X128837500Y-96250000D03*
X128837500Y-96750000D03*
X128837500Y-97250000D03*
X128837500Y-97750000D03*
X128837500Y-98250000D03*
X128837500Y-98750000D03*
X128837500Y-99250000D03*
X128837500Y-99750000D03*
X128837500Y-100250000D03*
X128837500Y-100750000D03*
X128837500Y-101250000D03*
D22*
X130250000Y-102662500D03*
X130750000Y-102662500D03*
X131250000Y-102662500D03*
X131750000Y-102662500D03*
X132250000Y-102662500D03*
X132750000Y-102662500D03*
X133250000Y-102662500D03*
X133750000Y-102662500D03*
X134250000Y-102662500D03*
X134750000Y-102662500D03*
X135250000Y-102662500D03*
X135750000Y-102662500D03*
%TD*%
D13*
%TO.C,R503*%
X77750000Y-64575000D03*
X77750000Y-62925000D03*
%TD*%
D14*
%TO.C,R209*%
X74750000Y-120925000D03*
X74750000Y-122575000D03*
%TD*%
D13*
%TO.C,R303*%
X142750000Y-98825000D03*
X142750000Y-97175000D03*
%TD*%
D23*
%TO.C,C208*%
X81725000Y-122750000D03*
X83275000Y-122750000D03*
%TD*%
D13*
%TO.C,R406*%
X156250000Y-129075000D03*
X156250000Y-127425000D03*
%TD*%
D23*
%TO.C,C306*%
X129725000Y-92250000D03*
X131275000Y-92250000D03*
%TD*%
D16*
%TO.C,U302*%
X121387500Y-120200000D03*
X121387500Y-119250000D03*
X121387500Y-118300000D03*
X119112500Y-118300000D03*
X119112500Y-119250000D03*
X119112500Y-120200000D03*
%TD*%
D20*
%TO.C,C301*%
X142750000Y-100475000D03*
X142750000Y-102025000D03*
%TD*%
D13*
%TO.C,R108*%
X133500000Y-129075000D03*
X133500000Y-127425000D03*
%TD*%
D24*
%TO.C,U201*%
X84655000Y-113275000D03*
X83385000Y-113275000D03*
X82115000Y-113275000D03*
X80845000Y-113275000D03*
X80845000Y-118225000D03*
X82115000Y-118225000D03*
X83385000Y-118225000D03*
X84655000Y-118225000D03*
%TD*%
D13*
%TO.C,R606*%
X107500000Y-64575000D03*
X107500000Y-62925000D03*
%TD*%
%TO.C,R608*%
X115000000Y-64575000D03*
X115000000Y-62925000D03*
%TD*%
D25*
%TO.C,D601*%
X114749999Y-58499999D03*
X118749999Y-58499999D03*
%TD*%
D26*
%TO.C,C102*%
X235550000Y-51250000D03*
X234000000Y-51250000D03*
%TD*%
D27*
%TO.C,D204*%
X224937500Y-81000000D03*
X223062500Y-81000000D03*
%TD*%
D13*
%TO.C,R102*%
X142750000Y-129075000D03*
X142750000Y-127425000D03*
%TD*%
D28*
%TO.C,D203*%
X89249999Y-117749999D03*
X89249999Y-113749999D03*
%TD*%
D29*
%TO.C,U406*%
X169112500Y-132550000D03*
X169112500Y-133500000D03*
X169112500Y-134450000D03*
X171387500Y-134450000D03*
X171387500Y-133500000D03*
X171387500Y-132550000D03*
%TD*%
D13*
%TO.C,R505*%
X72000000Y-64575000D03*
X72000000Y-62925000D03*
%TD*%
D20*
%TO.C,C307*%
X139250000Y-95975000D03*
X139250000Y-97525000D03*
%TD*%
D16*
%TO.C,U601*%
X109637500Y-59450000D03*
X109637500Y-58500000D03*
X109637500Y-57550000D03*
X107362500Y-57550000D03*
X107362500Y-58500000D03*
X107362500Y-59450000D03*
%TD*%
D25*
%TO.C,D701*%
X146499999Y-58499999D03*
X150499999Y-58499999D03*
%TD*%
D30*
%TO.C,C213*%
X105537500Y-123500000D03*
X102462500Y-123500000D03*
%TD*%
D15*
%TO.C,C105*%
X191250000Y-88025000D03*
X191250000Y-86475000D03*
%TD*%
D13*
%TO.C,R411*%
X175000000Y-129075000D03*
X175000000Y-127425000D03*
%TD*%
D14*
%TO.C,R709*%
X155250000Y-62925000D03*
X155250000Y-64575000D03*
%TD*%
D23*
%TO.C,C303*%
X144475000Y-97250000D03*
X146025000Y-97250000D03*
%TD*%
D25*
%TO.C,D901*%
X209999999Y-58499999D03*
X213999999Y-58499999D03*
%TD*%
D20*
%TO.C,C302*%
X123750000Y-113725000D03*
X123750000Y-115275000D03*
%TD*%
D13*
%TO.C,R806*%
X171000000Y-64575000D03*
X171000000Y-62925000D03*
%TD*%
%TO.C,R908*%
X210250000Y-64575000D03*
X210250000Y-62925000D03*
%TD*%
D31*
%TO.C,D202*%
X80924999Y-97249999D03*
X80924999Y-100749999D03*
%TD*%
D32*
%TO.C,Q701*%
X155187500Y-59450000D03*
X155187500Y-57550000D03*
X153312500Y-58500000D03*
%TD*%
D14*
%TO.C,R202*%
X75000000Y-112675000D03*
X75000000Y-114325000D03*
%TD*%
D13*
%TO.C,R708*%
X146750000Y-64575000D03*
X146750000Y-62925000D03*
%TD*%
%TO.C,R803*%
X173000000Y-64575000D03*
X173000000Y-62925000D03*
%TD*%
D33*
%TO.C,U202*%
X100949999Y-120149999D03*
X103249999Y-120149999D03*
D34*
X103249999Y-113849999D03*
D33*
X105549999Y-120149999D03*
%TD*%
D14*
%TO.C,R710*%
X153500000Y-62925000D03*
X153500000Y-64575000D03*
%TD*%
D13*
%TO.C,R415*%
X165500000Y-129075000D03*
X165500000Y-127425000D03*
%TD*%
%TO.C,R807*%
X174750000Y-64575000D03*
X174750000Y-62925000D03*
%TD*%
D23*
%TO.C,C101*%
X57450000Y-51250000D03*
X59000000Y-51250000D03*
%TD*%
D16*
%TO.C,U701*%
X141387500Y-59450000D03*
X141387500Y-58500000D03*
X141387500Y-57550000D03*
X139112500Y-57550000D03*
X139112500Y-58500000D03*
X139112500Y-59450000D03*
%TD*%
D14*
%TO.C,R302*%
X127250000Y-113675000D03*
X127250000Y-115325000D03*
%TD*%
%TO.C,R910*%
X217000000Y-62925000D03*
X217000000Y-64575000D03*
%TD*%
D23*
%TO.C,C205*%
X83475000Y-111000000D03*
X85025000Y-111000000D03*
%TD*%
D32*
%TO.C,Q901*%
X218687500Y-59450000D03*
X218687500Y-57550000D03*
X216812500Y-58500000D03*
%TD*%
D13*
%TO.C,R204*%
X80000000Y-111075000D03*
X80000000Y-109425000D03*
%TD*%
D20*
%TO.C,C209*%
X86500000Y-117225000D03*
X86500000Y-118775000D03*
%TD*%
D35*
%TO.C,R403*%
X190425000Y-122750000D03*
X192075000Y-122750000D03*
%TD*%
%TO.C,R402*%
X194925000Y-122750000D03*
X196575000Y-122750000D03*
%TD*%
D13*
%TO.C,R409*%
X167500000Y-129075000D03*
X167500000Y-127425000D03*
%TD*%
D35*
%TO.C,R405*%
X181425000Y-122750000D03*
X183075000Y-122750000D03*
%TD*%
D13*
%TO.C,R304*%
X122000000Y-115325000D03*
X122000000Y-113675000D03*
%TD*%
%TO.C,R416*%
X161750000Y-129075000D03*
X161750000Y-127425000D03*
%TD*%
D35*
%TO.C,R401*%
X199425000Y-122750000D03*
X201075000Y-122750000D03*
%TD*%
D13*
%TO.C,R906*%
X202750000Y-64575000D03*
X202750000Y-62925000D03*
%TD*%
%TO.C,R601*%
X102000000Y-64575000D03*
X102000000Y-62925000D03*
%TD*%
D23*
%TO.C,C203*%
X83475000Y-107500000D03*
X85025000Y-107500000D03*
%TD*%
D14*
%TO.C,R909*%
X218750000Y-62925000D03*
X218750000Y-64575000D03*
%TD*%
%TO.C,R206*%
X80000000Y-120925000D03*
X80000000Y-122575000D03*
%TD*%
D13*
%TO.C,R301*%
X125500000Y-115325000D03*
X125500000Y-113675000D03*
%TD*%
D23*
%TO.C,C204*%
X83475000Y-109250000D03*
X85025000Y-109250000D03*
%TD*%
D13*
%TO.C,R701*%
X133750000Y-64575000D03*
X133750000Y-62925000D03*
%TD*%
D36*
%TO.C,Y301*%
X146349999Y-101599999D03*
X146349999Y-99399999D03*
X144649999Y-99399999D03*
X144649999Y-101599999D03*
%TD*%
D25*
%TO.C,D501*%
X82999999Y-58499999D03*
X86999999Y-58499999D03*
%TD*%
D27*
%TO.C,D101*%
X224937500Y-85825000D03*
X223062500Y-85825000D03*
%TD*%
D17*
%TO.C,U401*%
X201019999Y-125099999D03*
X198479999Y-125099999D03*
X198479999Y-131399999D03*
X201019999Y-131399999D03*
%TD*%
D13*
%TO.C,R603*%
X109500000Y-64575000D03*
X109500000Y-62925000D03*
%TD*%
%TO.C,R605*%
X103750000Y-64575000D03*
X103750000Y-62925000D03*
%TD*%
%TO.C,R702*%
X137500000Y-64575000D03*
X137500000Y-62925000D03*
%TD*%
D37*
%TO.C,C214*%
X97500000Y-115462500D03*
X97500000Y-118537500D03*
%TD*%
D13*
%TO.C,R103*%
X139000000Y-129075000D03*
X139000000Y-127425000D03*
%TD*%
D38*
%TO.C,Q201*%
X73424999Y-100524999D03*
X73424999Y-97474999D03*
X70074999Y-100524999D03*
X70074999Y-97474999D03*
D39*
X78049999Y-101279999D03*
X78049999Y-98999999D03*
X78049999Y-96719999D03*
%TD*%
D23*
%TO.C,C104*%
X57450000Y-140750000D03*
X59000000Y-140750000D03*
%TD*%
D14*
%TO.C,R101*%
X226750000Y-85750000D03*
X226750000Y-87400000D03*
%TD*%
D19*
%TO.C,R201*%
X78750000Y-103500000D03*
X77100000Y-103500000D03*
%TD*%
D29*
%TO.C,U407*%
X161612500Y-132550000D03*
X161612500Y-133500000D03*
X161612500Y-134450000D03*
X163887500Y-134450000D03*
X163887500Y-133500000D03*
X163887500Y-132550000D03*
%TD*%
D13*
%TO.C,R801*%
X165500000Y-64575000D03*
X165500000Y-62925000D03*
%TD*%
%TO.C,R501*%
X70250000Y-64575000D03*
X70250000Y-62925000D03*
%TD*%
%TO.C,R109*%
X129750000Y-129075000D03*
X129750000Y-127425000D03*
%TD*%
%TO.C,R604*%
X113250000Y-64575000D03*
X113250000Y-62925000D03*
%TD*%
%TO.C,R305*%
X120250000Y-115325000D03*
X120250000Y-113675000D03*
%TD*%
%TO.C,R905*%
X199000000Y-64575000D03*
X199000000Y-62925000D03*
%TD*%
%TO.C,R901*%
X197250000Y-64575000D03*
X197250000Y-62925000D03*
%TD*%
D40*
%TO.C,L201*%
X88249999Y-120699999D03*
X88249999Y-124299999D03*
%TD*%
D13*
%TO.C,R804*%
X178500000Y-64575000D03*
X178500000Y-62925000D03*
%TD*%
D23*
%TO.C,C304*%
X137975000Y-104750000D03*
X139525000Y-104750000D03*
%TD*%
D13*
%TO.C,R704*%
X145000000Y-64575000D03*
X145000000Y-62925000D03*
%TD*%
%TO.C,R504*%
X81500000Y-64575000D03*
X81500000Y-62925000D03*
%TD*%
D14*
%TO.C,R810*%
X185250000Y-62925000D03*
X185250000Y-64575000D03*
%TD*%
D32*
%TO.C,Q501*%
X91687500Y-59450000D03*
X91687500Y-57550000D03*
X89812500Y-58500000D03*
%TD*%
D13*
%TO.C,R907*%
X206500000Y-64575000D03*
X206500000Y-62925000D03*
%TD*%
D23*
%TO.C,C308*%
X137975000Y-103000000D03*
X139525000Y-103000000D03*
%TD*%
%TO.C,C207*%
X81725000Y-120750000D03*
X83275000Y-120750000D03*
%TD*%
D14*
%TO.C,R809*%
X187000000Y-62925000D03*
X187000000Y-64575000D03*
%TD*%
D13*
%TO.C,R506*%
X75750000Y-64575000D03*
X75750000Y-62925000D03*
%TD*%
%TO.C,R706*%
X139250000Y-64575000D03*
X139250000Y-62925000D03*
%TD*%
D20*
%TO.C,C107*%
X178750000Y-109475000D03*
X178750000Y-111025000D03*
%TD*%
D13*
%TO.C,R414*%
X169250000Y-129075000D03*
X169250000Y-127425000D03*
%TD*%
D25*
%TO.C,D201*%
X61999999Y-100749999D03*
X65999999Y-100749999D03*
%TD*%
D13*
%TO.C,R306*%
X118500000Y-115325000D03*
X118500000Y-113675000D03*
%TD*%
%TO.C,R904*%
X208500000Y-64575000D03*
X208500000Y-62925000D03*
%TD*%
%TO.C,R903*%
X204750000Y-64575000D03*
X204750000Y-62925000D03*
%TD*%
D35*
%TO.C,R404*%
X185925000Y-122750000D03*
X187575000Y-122750000D03*
%TD*%
D14*
%TO.C,R205*%
X76750000Y-112675000D03*
X76750000Y-114325000D03*
%TD*%
D13*
%TO.C,R705*%
X135500000Y-64575000D03*
X135500000Y-62925000D03*
%TD*%
D32*
%TO.C,Q801*%
X186937500Y-59450000D03*
X186937500Y-57550000D03*
X185062500Y-58500000D03*
%TD*%
D13*
%TO.C,R410*%
X171250000Y-129075000D03*
X171250000Y-127425000D03*
%TD*%
D17*
%TO.C,U404*%
X187519999Y-125099999D03*
X184979999Y-125099999D03*
X184979999Y-131399999D03*
X187519999Y-131399999D03*
%TD*%
D13*
%TO.C,R408*%
X163750000Y-129075000D03*
X163750000Y-127425000D03*
%TD*%
D17*
%TO.C,U402*%
X196519999Y-125099999D03*
X193979999Y-125099999D03*
X193979999Y-131399999D03*
X196519999Y-131399999D03*
%TD*%
D15*
%TO.C,C106*%
X193000000Y-88025000D03*
X193000000Y-86475000D03*
%TD*%
D13*
%TO.C,R602*%
X105750000Y-64575000D03*
X105750000Y-62925000D03*
%TD*%
%TO.C,R412*%
X176750000Y-129075000D03*
X176750000Y-127425000D03*
%TD*%
D17*
%TO.C,U403*%
X192019999Y-125099999D03*
X189479999Y-125099999D03*
X189479999Y-131399999D03*
X192019999Y-131399999D03*
%TD*%
D13*
%TO.C,R607*%
X111250000Y-64575000D03*
X111250000Y-62925000D03*
%TD*%
%TO.C,R805*%
X167250000Y-64575000D03*
X167250000Y-62925000D03*
%TD*%
D14*
%TO.C,R609*%
X123500000Y-62925000D03*
X123500000Y-64575000D03*
%TD*%
D13*
%TO.C,R703*%
X141250000Y-64575000D03*
X141250000Y-62925000D03*
%TD*%
%TO.C,R707*%
X143000000Y-64575000D03*
X143000000Y-62925000D03*
%TD*%
%TO.C,R107*%
X137250000Y-129075000D03*
X137250000Y-127425000D03*
%TD*%
D32*
%TO.C,Q601*%
X123437500Y-59450000D03*
X123437500Y-57550000D03*
X121562500Y-58500000D03*
%TD*%
D13*
%TO.C,R808*%
X176750000Y-64575000D03*
X176750000Y-62925000D03*
%TD*%
D20*
%TO.C,C108*%
X177000000Y-109475000D03*
X177000000Y-111025000D03*
%TD*%
D41*
%TO.C,L202*%
X102337500Y-126500000D03*
X104162500Y-126500000D03*
%TD*%
D15*
%TO.C,C210*%
X92000000Y-124525000D03*
X92000000Y-122975000D03*
%TD*%
D13*
%TO.C,R902*%
X201000000Y-64575000D03*
X201000000Y-62925000D03*
%TD*%
D26*
%TO.C,C103*%
X235550000Y-140750000D03*
X234000000Y-140750000D03*
%TD*%
D14*
%TO.C,R610*%
X121750000Y-62925000D03*
X121750000Y-64575000D03*
%TD*%
D26*
%TO.C,C305*%
X136275000Y-104750000D03*
X134725000Y-104750000D03*
%TD*%
D29*
%TO.C,U103*%
X135112500Y-132550000D03*
X135112500Y-133500000D03*
X135112500Y-134450000D03*
X137387500Y-134450000D03*
X137387500Y-133500000D03*
X137387500Y-132550000D03*
%TD*%
D25*
%TO.C,D801*%
X178249999Y-58499999D03*
X182249999Y-58499999D03*
%TD*%
D13*
%TO.C,R106*%
X141000000Y-129075000D03*
X141000000Y-127425000D03*
%TD*%
%TO.C,R413*%
X173000000Y-129075000D03*
X173000000Y-127425000D03*
%TD*%
D23*
%TO.C,C202*%
X83475000Y-105750000D03*
X85025000Y-105750000D03*
%TD*%
M02*
