%TF.GenerationSoftware,KiCad,Pcbnew,(6.99.0-4444-ge62463b52b)*%
%TF.CreationDate,2022-12-13T19:15:09+01:00*%
%TF.ProjectId,bd845-pwb,62643834-352d-4707-9762-2e6b69636164,rev?*%
%TF.SameCoordinates,Original*%
%TF.FileFunction,Soldermask,Top*%
%TF.FilePolarity,Negative*%
%FSLAX46Y46*%
G04 Gerber Fmt 4.6, Leading zero omitted, Abs format (unit mm)*
G04 Created by KiCad (PCBNEW (6.99.0-4444-ge62463b52b)) date 2022-12-13 19:15:09*
%MOMM*%
%LPD*%
G01*
G04 APERTURE LIST*
G04 Aperture macros list*
%AMRoundRect*
0 Rectangle with rounded corners*
0 $1 Rounding radius*
0 $2 $3 $4 $5 $6 $7 $8 $9 X,Y pos of 4 corners*
0 Add a 4 corners polygon primitive as box body*
4,1,4,$2,$3,$4,$5,$6,$7,$8,$9,$2,$3,0*
0 Add four circle primitives for the rounded corners*
1,1,$1+$1,$2,$3*
1,1,$1+$1,$4,$5*
1,1,$1+$1,$6,$7*
1,1,$1+$1,$8,$9*
0 Add four rect primitives between the rounded corners*
20,1,$1+$1,$2,$3,$4,$5,0*
20,1,$1+$1,$4,$5,$6,$7,0*
20,1,$1+$1,$6,$7,$8,$9,0*
20,1,$1+$1,$8,$9,$2,$3,0*%
G04 Aperture macros list end*
%ADD10C,0.300000*%
%ADD11C,0.000000*%
%ADD12C,1.448000*%
%ADD13C,2.800000*%
%ADD14RoundRect,0.300001X-1.099999X1.099999X-1.099999X-1.099999X1.099999X-1.099999X1.099999X1.099999X0*%
%ADD15RoundRect,0.200000X0.150000X-0.725000X0.150000X0.725000X-0.150000X0.725000X-0.150000X-0.725000X0*%
%ADD16RoundRect,0.200000X-0.150000X0.725000X-0.150000X-0.725000X0.150000X-0.725000X0.150000X0.725000X0*%
%ADD17RoundRect,0.250000X0.275000X-0.200000X0.275000X0.200000X-0.275000X0.200000X-0.275000X-0.200000X0*%
%ADD18RoundRect,0.250000X-0.275000X0.200000X-0.275000X-0.200000X0.275000X-0.200000X0.275000X0.200000X0*%
%ADD19RoundRect,0.275000X0.250000X-0.225000X0.250000X0.225000X-0.250000X0.225000X-0.250000X-0.225000X0*%
%ADD20RoundRect,0.200000X0.512500X0.150000X-0.512500X0.150000X-0.512500X-0.150000X0.512500X-0.150000X0*%
%ADD21RoundRect,0.050000X-0.320000X1.000000X-0.320000X-1.000000X0.320000X-1.000000X0.320000X1.000000X0*%
%ADD22C,1.090600*%
%ADD23C,0.887400*%
%ADD24RoundRect,0.293750X-0.456250X0.243750X-0.456250X-0.243750X0.456250X-0.243750X0.456250X0.243750X0*%
%ADD25RoundRect,0.250000X0.200000X0.275000X-0.200000X0.275000X-0.200000X-0.275000X0.200000X-0.275000X0*%
%ADD26RoundRect,0.050000X0.800000X-0.800000X0.800000X0.800000X-0.800000X0.800000X-0.800000X-0.800000X0*%
%ADD27O,1.700000X1.700000*%
%ADD28C,1.000000*%
%ADD29C,8.100000*%
%ADD30RoundRect,0.275000X-0.250000X0.225000X-0.250000X-0.225000X0.250000X-0.225000X0.250000X0.225000X0*%
%ADD31RoundRect,0.125000X0.662500X0.075000X-0.662500X0.075000X-0.662500X-0.075000X0.662500X-0.075000X0*%
%ADD32RoundRect,0.125000X0.075000X0.662500X-0.075000X0.662500X-0.075000X-0.662500X0.075000X-0.662500X0*%
%ADD33RoundRect,0.275000X-0.225000X-0.250000X0.225000X-0.250000X0.225000X0.250000X-0.225000X0.250000X0*%
%ADD34RoundRect,0.050000X-0.850000X-0.850000X0.850000X-0.850000X0.850000X0.850000X-0.850000X0.850000X0*%
%ADD35O,1.800000X1.800000*%
%ADD36RoundRect,0.200000X-0.150000X0.825000X-0.150000X-0.825000X0.150000X-0.825000X0.150000X0.825000X0*%
%ADD37RoundRect,0.050000X-1.250000X-0.900000X1.250000X-0.900000X1.250000X0.900000X-1.250000X0.900000X0*%
%ADD38RoundRect,0.275000X0.225000X0.250000X-0.225000X0.250000X-0.225000X-0.250000X0.225000X-0.250000X0*%
%ADD39RoundRect,0.293750X0.243750X0.456250X-0.243750X0.456250X-0.243750X-0.456250X0.243750X-0.456250X0*%
%ADD40RoundRect,0.050000X0.900000X-1.250000X0.900000X1.250000X-0.900000X1.250000X-0.900000X-1.250000X0*%
%ADD41RoundRect,0.200000X-0.512500X-0.150000X0.512500X-0.150000X0.512500X0.150000X-0.512500X0.150000X0*%
%ADD42C,1.100000*%
%ADD43RoundRect,0.300000X0.412500X0.925000X-0.412500X0.925000X-0.412500X-0.925000X0.412500X-0.925000X0*%
%ADD44RoundRect,0.300000X-0.600000X-0.725000X0.600000X-0.725000X0.600000X0.725000X-0.600000X0.725000X0*%
%ADD45O,1.800000X2.050000*%
%ADD46RoundRect,0.050000X-0.850000X0.650000X-0.850000X-0.650000X0.850000X-0.650000X0.850000X0.650000X0*%
%ADD47RoundRect,0.200000X0.587500X0.150000X-0.587500X0.150000X-0.587500X-0.150000X0.587500X-0.150000X0*%
%ADD48RoundRect,0.050000X0.750000X-1.000000X0.750000X1.000000X-0.750000X1.000000X-0.750000X-1.000000X0*%
%ADD49RoundRect,0.050000X1.900000X-1.000000X1.900000X1.000000X-1.900000X1.000000X-1.900000X-1.000000X0*%
%ADD50RoundRect,0.250000X-0.200000X-0.275000X0.200000X-0.275000X0.200000X0.275000X-0.200000X0.275000X0*%
%ADD51RoundRect,0.050000X0.600000X-0.700000X0.600000X0.700000X-0.600000X0.700000X-0.600000X-0.700000X0*%
%ADD52RoundRect,0.050000X0.800000X0.800000X-0.800000X0.800000X-0.800000X-0.800000X0.800000X-0.800000X0*%
%ADD53C,1.700000*%
%ADD54RoundRect,0.300000X-0.925000X0.412500X-0.925000X-0.412500X0.925000X-0.412500X0.925000X0.412500X0*%
%ADD55RoundRect,0.050000X1.100000X0.600000X-1.100000X0.600000X-1.100000X-0.600000X1.100000X-0.600000X0*%
%ADD56RoundRect,0.050000X3.200000X2.900000X-3.200000X2.900000X-3.200000X-2.900000X3.200000X-2.900000X0*%
%ADD57RoundRect,0.300000X0.600000X0.725000X-0.600000X0.725000X-0.600000X-0.725000X0.600000X-0.725000X0*%
%ADD58RoundRect,0.050000X-2.000000X0.750000X-2.000000X-0.750000X2.000000X-0.750000X2.000000X0.750000X0*%
%ADD59RoundRect,0.300000X-0.262500X-0.450000X0.262500X-0.450000X0.262500X0.450000X-0.262500X0.450000X0*%
G04 APERTURE END LIST*
G36*
X141575000Y-102950000D02*
G01*
X147875000Y-102950000D01*
X147875000Y-103550000D01*
X141575000Y-103550000D01*
X141575000Y-102950000D01*
G37*
G36*
X141300000Y-100237300D02*
G01*
X141900000Y-100237300D01*
X141900000Y-103262700D01*
X141300000Y-103262700D01*
X141300000Y-100237300D01*
G37*
D10*
X148000000Y-96000000D02*
G75*
G03*
X148000000Y-96000000I-150000J0D01*
G01*
D11*
G36*
X227750000Y-46000000D02*
G01*
X227750000Y-46000000D01*
G75*
G03*
X234000000Y-52250000I6250000J0D01*
G01*
X238600000Y-52250000D01*
X238600000Y-53750000D01*
X234000000Y-53750000D01*
G75*
G02*
X226250000Y-46000000I0J7750000D01*
G01*
X226250000Y-41400000D01*
X227750000Y-41400000D01*
X227750000Y-46000000D01*
G37*
G36*
X226250000Y-42900000D02*
G01*
X66750000Y-42900000D01*
X66750000Y-41400000D01*
X226250000Y-41400000D01*
X226250000Y-42900000D01*
G37*
G36*
X226250000Y-150600000D02*
G01*
X66750000Y-150600000D01*
X66750000Y-149100000D01*
X226250000Y-149100000D01*
X226250000Y-150600000D01*
G37*
G36*
X238600000Y-138250000D02*
G01*
X237100000Y-138250000D01*
X237100000Y-53750000D01*
X238600000Y-53750000D01*
X238600000Y-138250000D01*
G37*
D10*
X141750000Y-96000000D02*
G75*
G03*
X141750000Y-96000000I-150000J0D01*
G01*
D11*
G36*
X55900000Y-138250000D02*
G01*
X54400000Y-138250000D01*
X54400000Y-53750000D01*
X55900000Y-53750000D01*
X55900000Y-138250000D01*
G37*
G36*
X141300000Y-96000000D02*
G01*
X141900000Y-96000000D01*
X141900000Y-98050000D01*
X141300000Y-98050000D01*
X141300000Y-96000000D01*
G37*
G36*
X141575000Y-95700000D02*
G01*
X147875000Y-95700000D01*
X147875000Y-96300000D01*
X141575000Y-96300000D01*
X141575000Y-95700000D01*
G37*
D10*
X141750000Y-103250000D02*
G75*
G03*
X141750000Y-103250000I-150000J0D01*
G01*
D11*
G36*
X59000000Y-138250000D02*
G01*
X59000000Y-138250000D01*
G75*
G02*
X66750000Y-146000000I0J-7750000D01*
G01*
X66750000Y-150600000D01*
X65250000Y-150600000D01*
X65250000Y-146000000D01*
G75*
G03*
X59000000Y-139750000I-6250000J0D01*
G01*
X54400000Y-139750000D01*
X54400000Y-138250000D01*
X59000000Y-138250000D01*
G37*
D10*
X148000000Y-103250000D02*
G75*
G03*
X148000000Y-103250000I-150000J0D01*
G01*
X141750000Y-100250000D02*
G75*
G03*
X141750000Y-100250000I-150000J0D01*
G01*
D11*
G36*
X238600000Y-139750000D02*
G01*
X234000000Y-139750000D01*
X233754532Y-139752409D01*
X233265108Y-139790928D01*
X232780215Y-139867727D01*
X232302843Y-139982335D01*
X231835934Y-140134042D01*
X231382367Y-140321916D01*
X230944939Y-140544797D01*
X230526347Y-140801311D01*
X230129170Y-141089876D01*
X229755859Y-141408714D01*
X229408714Y-141755859D01*
X229089876Y-142129170D01*
X228801311Y-142526347D01*
X228544797Y-142944939D01*
X228321916Y-143382367D01*
X228134042Y-143835934D01*
X227982335Y-144302843D01*
X227867727Y-144780215D01*
X227790928Y-145265108D01*
X227752409Y-145754532D01*
X227750000Y-146000000D01*
X227750000Y-150600000D01*
X226250000Y-150600000D01*
X226250000Y-146000000D01*
X226252412Y-145723294D01*
X226291891Y-145171293D01*
X226370650Y-144623514D01*
X226488286Y-144082749D01*
X226644200Y-143551755D01*
X226837598Y-143033236D01*
X227067493Y-142529835D01*
X227332715Y-142044117D01*
X227631912Y-141578557D01*
X227963559Y-141135528D01*
X228325967Y-140717288D01*
X228717288Y-140325967D01*
X229135528Y-139963559D01*
X229578557Y-139631912D01*
X230044117Y-139332715D01*
X230529835Y-139067493D01*
X231033236Y-138837598D01*
X231551755Y-138644200D01*
X232082749Y-138488286D01*
X232623514Y-138370650D01*
X233171293Y-138291891D01*
X233723294Y-138252412D01*
X234000000Y-138250000D01*
X238600000Y-138250000D01*
X238600000Y-139750000D01*
G37*
G36*
X147550000Y-95974600D02*
G01*
X148150000Y-95974600D01*
X148150000Y-103250000D01*
X147550000Y-103250000D01*
X147550000Y-95974600D01*
G37*
D10*
X141750000Y-98050000D02*
G75*
G03*
X141750000Y-98050000I-150000J0D01*
G01*
D11*
G36*
X66750000Y-46000000D02*
G01*
X66747588Y-46276706D01*
X66708109Y-46828707D01*
X66629350Y-47376486D01*
X66511714Y-47917251D01*
X66355800Y-48448245D01*
X66162402Y-48966764D01*
X65932507Y-49470165D01*
X65667285Y-49955883D01*
X65368088Y-50421443D01*
X65036441Y-50864472D01*
X64674033Y-51282712D01*
X64282712Y-51674033D01*
X63864472Y-52036441D01*
X63421443Y-52368088D01*
X62955883Y-52667285D01*
X62470165Y-52932507D01*
X61966764Y-53162402D01*
X61448245Y-53355800D01*
X60917251Y-53511714D01*
X60376486Y-53629350D01*
X59828707Y-53708109D01*
X59276706Y-53747588D01*
X59000000Y-53750000D01*
X54400000Y-53750000D01*
X54400000Y-52250000D01*
X59000000Y-52250000D01*
X59245468Y-52247591D01*
X59734892Y-52209072D01*
X60219785Y-52132273D01*
X60697157Y-52017665D01*
X61164066Y-51865958D01*
X61617633Y-51678084D01*
X62055061Y-51455203D01*
X62473653Y-51198689D01*
X62870830Y-50910124D01*
X63244141Y-50591286D01*
X63591286Y-50244141D01*
X63910124Y-49870830D01*
X64198689Y-49473653D01*
X64455203Y-49055061D01*
X64678084Y-48617633D01*
X64865958Y-48164066D01*
X65017665Y-47697157D01*
X65132273Y-47219785D01*
X65209072Y-46734892D01*
X65247591Y-46245468D01*
X65250000Y-46000000D01*
X65250000Y-41400000D01*
X66750000Y-41400000D01*
X66750000Y-46000000D01*
G37*
D12*
%TO.C,REF\u002A\u002A*%
X69000000Y-147000000D03*
%TD*%
%TO.C,REF\u002A\u002A*%
X224000000Y-147000000D03*
%TD*%
%TO.C,REF\u002A\u002A*%
X224000000Y-45000000D03*
%TD*%
D13*
%TO.C,J101*%
X66000000Y-118380000D03*
X66000000Y-114420000D03*
X66000000Y-110460000D03*
D14*
X66000000Y-106500000D03*
%TD*%
D15*
%TO.C,U102*%
X180555000Y-114575000D03*
X181825000Y-114575000D03*
X183095000Y-114575000D03*
X184365000Y-114575000D03*
X185635000Y-114575000D03*
X186905000Y-114575000D03*
X188175000Y-114575000D03*
X189445000Y-114575000D03*
X189445000Y-109425000D03*
X188175000Y-109425000D03*
X186905000Y-109425000D03*
X185635000Y-109425000D03*
X184365000Y-109425000D03*
X183095000Y-109425000D03*
X181825000Y-109425000D03*
X180555000Y-109425000D03*
%TD*%
D16*
%TO.C,U101*%
X189445000Y-82925000D03*
X188175000Y-82925000D03*
X186905000Y-82925000D03*
X185635000Y-82925000D03*
X184365000Y-82925000D03*
X183095000Y-82925000D03*
X181825000Y-82925000D03*
X180555000Y-82925000D03*
X180555000Y-88075000D03*
X181825000Y-88075000D03*
X183095000Y-88075000D03*
X184365000Y-88075000D03*
X185635000Y-88075000D03*
X186905000Y-88075000D03*
X188175000Y-88075000D03*
X189445000Y-88075000D03*
%TD*%
D17*
%TO.C,R105*%
X131500000Y-129075000D03*
X131500000Y-127425000D03*
%TD*%
D18*
%TO.C,R203*%
X81750000Y-109425000D03*
X81750000Y-111075000D03*
%TD*%
D19*
%TO.C,C211*%
X93750000Y-124525000D03*
X93750000Y-122975000D03*
%TD*%
D17*
%TO.C,R507*%
X79500000Y-64575000D03*
X79500000Y-62925000D03*
%TD*%
D20*
%TO.C,U901*%
X204887500Y-59450000D03*
X204887500Y-58500000D03*
X204887500Y-57550000D03*
X202612500Y-57550000D03*
X202612500Y-58500000D03*
X202612500Y-59450000D03*
%TD*%
D17*
%TO.C,R210*%
X226750000Y-82575000D03*
X226750000Y-80925000D03*
%TD*%
D21*
%TO.C,U405*%
X183020000Y-125100000D03*
X180480000Y-125100000D03*
X180480000Y-131400000D03*
X183020000Y-131400000D03*
%TD*%
D17*
%TO.C,R502*%
X74000000Y-64575000D03*
X74000000Y-62925000D03*
%TD*%
%TO.C,R417*%
X158000000Y-129075000D03*
X158000000Y-127425000D03*
%TD*%
D22*
%TO.C,J301*%
X117710000Y-123250000D03*
X122790000Y-122234000D03*
X122790000Y-124266000D03*
D23*
X118980000Y-123885000D03*
X118980000Y-122615000D03*
X120250000Y-123885000D03*
X120250000Y-122615000D03*
X121520000Y-123885000D03*
X121520000Y-122615000D03*
%TD*%
D24*
%TO.C,F201*%
X97000000Y-111562500D03*
X97000000Y-113437500D03*
%TD*%
D17*
%TO.C,R407*%
X160000000Y-129075000D03*
X160000000Y-127425000D03*
%TD*%
D19*
%TO.C,C212*%
X100500000Y-124525000D03*
X100500000Y-122975000D03*
%TD*%
D18*
%TO.C,R510*%
X90000000Y-62925000D03*
X90000000Y-64575000D03*
%TD*%
%TO.C,R509*%
X91750000Y-62925000D03*
X91750000Y-64575000D03*
%TD*%
D17*
%TO.C,R104*%
X135250000Y-129075000D03*
X135250000Y-127425000D03*
%TD*%
D20*
%TO.C,U801*%
X173137500Y-59450000D03*
X173137500Y-58500000D03*
X173137500Y-57550000D03*
X170862500Y-57550000D03*
X170862500Y-58500000D03*
X170862500Y-59450000D03*
%TD*%
D25*
%TO.C,R208*%
X76575000Y-119250000D03*
X74925000Y-119250000D03*
%TD*%
D26*
%TO.C,SW101*%
X132430000Y-145100000D03*
D27*
X134969999Y-145099999D03*
X137509999Y-145099999D03*
X140049999Y-145099999D03*
X140049999Y-137479999D03*
X137509999Y-137479999D03*
X134969999Y-137479999D03*
X132429999Y-137479999D03*
%TD*%
D20*
%TO.C,U501*%
X77887500Y-59450000D03*
X77887500Y-58500000D03*
X77887500Y-57550000D03*
X75612500Y-57550000D03*
X75612500Y-58500000D03*
X75612500Y-59450000D03*
%TD*%
D28*
%TO.C,H103*%
X231000000Y-146000000D03*
X231878680Y-143878680D03*
X231878680Y-148121320D03*
X234000000Y-143000000D03*
D29*
X234000000Y-146000000D03*
D28*
X234000000Y-149000000D03*
X236121320Y-143878680D03*
X236121320Y-148121320D03*
X237000000Y-146000000D03*
%TD*%
D17*
%TO.C,R207*%
X76750000Y-122575000D03*
X76750000Y-120925000D03*
%TD*%
%TO.C,R508*%
X83250000Y-64575000D03*
X83250000Y-62925000D03*
%TD*%
%TO.C,R802*%
X169250000Y-64575000D03*
X169250000Y-62925000D03*
%TD*%
D30*
%TO.C,C206*%
X78500000Y-112725000D03*
X78500000Y-114275000D03*
%TD*%
D31*
%TO.C,U301*%
X137162500Y-101250000D03*
X137162500Y-100750000D03*
X137162500Y-100250000D03*
X137162500Y-99750000D03*
X137162500Y-99250000D03*
X137162500Y-98750000D03*
X137162500Y-98250000D03*
X137162500Y-97750000D03*
X137162500Y-97250000D03*
X137162500Y-96750000D03*
X137162500Y-96250000D03*
X137162500Y-95750000D03*
D32*
X135750000Y-94337500D03*
X135250000Y-94337500D03*
X134750000Y-94337500D03*
X134250000Y-94337500D03*
X133750000Y-94337500D03*
X133250000Y-94337500D03*
X132750000Y-94337500D03*
X132250000Y-94337500D03*
X131750000Y-94337500D03*
X131250000Y-94337500D03*
X130750000Y-94337500D03*
X130250000Y-94337500D03*
D31*
X128837500Y-95750000D03*
X128837500Y-96250000D03*
X128837500Y-96750000D03*
X128837500Y-97250000D03*
X128837500Y-97750000D03*
X128837500Y-98250000D03*
X128837500Y-98750000D03*
X128837500Y-99250000D03*
X128837500Y-99750000D03*
X128837500Y-100250000D03*
X128837500Y-100750000D03*
X128837500Y-101250000D03*
D32*
X130250000Y-102662500D03*
X130750000Y-102662500D03*
X131250000Y-102662500D03*
X131750000Y-102662500D03*
X132250000Y-102662500D03*
X132750000Y-102662500D03*
X133250000Y-102662500D03*
X133750000Y-102662500D03*
X134250000Y-102662500D03*
X134750000Y-102662500D03*
X135250000Y-102662500D03*
X135750000Y-102662500D03*
%TD*%
D17*
%TO.C,R503*%
X77750000Y-64575000D03*
X77750000Y-62925000D03*
%TD*%
D18*
%TO.C,R209*%
X74750000Y-120925000D03*
X74750000Y-122575000D03*
%TD*%
D17*
%TO.C,R303*%
X142750000Y-98825000D03*
X142750000Y-97175000D03*
%TD*%
D33*
%TO.C,C208*%
X81725000Y-122750000D03*
X83275000Y-122750000D03*
%TD*%
D34*
%TO.C,J302*%
X114500000Y-113380000D03*
D35*
X114499999Y-115919999D03*
X114499999Y-118459999D03*
X114499999Y-120999999D03*
X114499999Y-123539999D03*
%TD*%
D17*
%TO.C,R406*%
X156250000Y-129075000D03*
X156250000Y-127425000D03*
%TD*%
D33*
%TO.C,C306*%
X129725000Y-92250000D03*
X131275000Y-92250000D03*
%TD*%
D20*
%TO.C,U302*%
X121387500Y-120200000D03*
X121387500Y-119250000D03*
X121387500Y-118300000D03*
X119112500Y-118300000D03*
X119112500Y-119250000D03*
X119112500Y-120200000D03*
%TD*%
D30*
%TO.C,C301*%
X142750000Y-100475000D03*
X142750000Y-102025000D03*
%TD*%
D17*
%TO.C,R108*%
X133500000Y-129075000D03*
X133500000Y-127425000D03*
%TD*%
D36*
%TO.C,U201*%
X84655000Y-113275000D03*
X83385000Y-113275000D03*
X82115000Y-113275000D03*
X80845000Y-113275000D03*
X80845000Y-118225000D03*
X82115000Y-118225000D03*
X83385000Y-118225000D03*
X84655000Y-118225000D03*
%TD*%
D17*
%TO.C,R606*%
X107500000Y-64575000D03*
X107500000Y-62925000D03*
%TD*%
%TO.C,R608*%
X115000000Y-64575000D03*
X115000000Y-62925000D03*
%TD*%
D37*
%TO.C,D601*%
X114750000Y-58500000D03*
X118750000Y-58500000D03*
%TD*%
D38*
%TO.C,C102*%
X235550000Y-51250000D03*
X234000000Y-51250000D03*
%TD*%
D39*
%TO.C,D204*%
X224937500Y-81000000D03*
X223062500Y-81000000D03*
%TD*%
D17*
%TO.C,R102*%
X142750000Y-129075000D03*
X142750000Y-127425000D03*
%TD*%
D40*
%TO.C,D203*%
X89250000Y-117750000D03*
X89250000Y-113750000D03*
%TD*%
D41*
%TO.C,U406*%
X169112500Y-132550000D03*
X169112500Y-133500000D03*
X169112500Y-134450000D03*
X171387500Y-134450000D03*
X171387500Y-133500000D03*
X171387500Y-132550000D03*
%TD*%
D17*
%TO.C,R505*%
X72000000Y-64575000D03*
X72000000Y-62925000D03*
%TD*%
D30*
%TO.C,C307*%
X139250000Y-95975000D03*
X139250000Y-97525000D03*
%TD*%
D42*
%TO.C,TP202*%
X92750000Y-105500000D03*
%TD*%
D20*
%TO.C,U601*%
X109637500Y-59450000D03*
X109637500Y-58500000D03*
X109637500Y-57550000D03*
X107362500Y-57550000D03*
X107362500Y-58500000D03*
X107362500Y-59450000D03*
%TD*%
D37*
%TO.C,D701*%
X146500000Y-58500000D03*
X150500000Y-58500000D03*
%TD*%
D43*
%TO.C,C213*%
X105537500Y-123500000D03*
X102462500Y-123500000D03*
%TD*%
D19*
%TO.C,C105*%
X191250000Y-88025000D03*
X191250000Y-86475000D03*
%TD*%
D17*
%TO.C,R411*%
X175000000Y-129075000D03*
X175000000Y-127425000D03*
%TD*%
D18*
%TO.C,R709*%
X155250000Y-62925000D03*
X155250000Y-64575000D03*
%TD*%
D33*
%TO.C,C303*%
X144475000Y-97250000D03*
X146025000Y-97250000D03*
%TD*%
D37*
%TO.C,D901*%
X210000000Y-58500000D03*
X214000000Y-58500000D03*
%TD*%
D30*
%TO.C,C302*%
X123750000Y-113725000D03*
X123750000Y-115275000D03*
%TD*%
D17*
%TO.C,R806*%
X171000000Y-64575000D03*
X171000000Y-62925000D03*
%TD*%
%TO.C,R908*%
X210250000Y-64575000D03*
X210250000Y-62925000D03*
%TD*%
D44*
%TO.C,J601*%
X102250000Y-51500000D03*
D45*
X104749999Y-51499999D03*
X107249999Y-51499999D03*
X109749999Y-51499999D03*
X112249999Y-51499999D03*
X114749999Y-51499999D03*
X117249999Y-51499999D03*
X119749999Y-51499999D03*
X122249999Y-51499999D03*
X124749999Y-51499999D03*
X127249999Y-51499999D03*
%TD*%
D46*
%TO.C,D202*%
X80925000Y-97250000D03*
X80925000Y-100750000D03*
%TD*%
D47*
%TO.C,Q701*%
X155187500Y-59450000D03*
X155187500Y-57550000D03*
X153312500Y-58500000D03*
%TD*%
D18*
%TO.C,R202*%
X75000000Y-112675000D03*
X75000000Y-114325000D03*
%TD*%
D17*
%TO.C,R708*%
X146750000Y-64575000D03*
X146750000Y-62925000D03*
%TD*%
%TO.C,R803*%
X173000000Y-64575000D03*
X173000000Y-62925000D03*
%TD*%
D48*
%TO.C,U202*%
X100950000Y-120150000D03*
X103250000Y-120150000D03*
D49*
X103250000Y-113850000D03*
D48*
X105550000Y-120150000D03*
%TD*%
D18*
%TO.C,R710*%
X153500000Y-62925000D03*
X153500000Y-64575000D03*
%TD*%
D17*
%TO.C,R415*%
X165500000Y-129075000D03*
X165500000Y-127425000D03*
%TD*%
%TO.C,R807*%
X174750000Y-64575000D03*
X174750000Y-62925000D03*
%TD*%
D33*
%TO.C,C101*%
X57450000Y-51250000D03*
X59000000Y-51250000D03*
%TD*%
D20*
%TO.C,U701*%
X141387500Y-59450000D03*
X141387500Y-58500000D03*
X141387500Y-57550000D03*
X139112500Y-57550000D03*
X139112500Y-58500000D03*
X139112500Y-59450000D03*
%TD*%
D18*
%TO.C,R302*%
X127250000Y-113675000D03*
X127250000Y-115325000D03*
%TD*%
%TO.C,R910*%
X217000000Y-62925000D03*
X217000000Y-64575000D03*
%TD*%
D33*
%TO.C,C205*%
X83475000Y-111000000D03*
X85025000Y-111000000D03*
%TD*%
D47*
%TO.C,Q901*%
X218687500Y-59450000D03*
X218687500Y-57550000D03*
X216812500Y-58500000D03*
%TD*%
D44*
%TO.C,J901*%
X197500000Y-51500000D03*
D45*
X199999999Y-51499999D03*
X202499999Y-51499999D03*
X204999999Y-51499999D03*
X207499999Y-51499999D03*
X209999999Y-51499999D03*
X212499999Y-51499999D03*
X214999999Y-51499999D03*
X217499999Y-51499999D03*
X219999999Y-51499999D03*
X222499999Y-51499999D03*
%TD*%
D17*
%TO.C,R204*%
X80000000Y-111075000D03*
X80000000Y-109425000D03*
%TD*%
D30*
%TO.C,C209*%
X86500000Y-117225000D03*
X86500000Y-118775000D03*
%TD*%
D50*
%TO.C,R403*%
X190425000Y-122750000D03*
X192075000Y-122750000D03*
%TD*%
%TO.C,R402*%
X194925000Y-122750000D03*
X196575000Y-122750000D03*
%TD*%
D17*
%TO.C,R409*%
X167500000Y-129075000D03*
X167500000Y-127425000D03*
%TD*%
D50*
%TO.C,R405*%
X181425000Y-122750000D03*
X183075000Y-122750000D03*
%TD*%
D17*
%TO.C,R304*%
X122000000Y-115325000D03*
X122000000Y-113675000D03*
%TD*%
%TO.C,R416*%
X161750000Y-129075000D03*
X161750000Y-127425000D03*
%TD*%
D50*
%TO.C,R401*%
X199425000Y-122750000D03*
X201075000Y-122750000D03*
%TD*%
D17*
%TO.C,R906*%
X202750000Y-64575000D03*
X202750000Y-62925000D03*
%TD*%
%TO.C,R601*%
X102000000Y-64575000D03*
X102000000Y-62925000D03*
%TD*%
D33*
%TO.C,C203*%
X83475000Y-107500000D03*
X85025000Y-107500000D03*
%TD*%
D18*
%TO.C,R909*%
X218750000Y-62925000D03*
X218750000Y-64575000D03*
%TD*%
%TO.C,R206*%
X80000000Y-120925000D03*
X80000000Y-122575000D03*
%TD*%
D17*
%TO.C,R301*%
X125500000Y-115325000D03*
X125500000Y-113675000D03*
%TD*%
D33*
%TO.C,C204*%
X83475000Y-109250000D03*
X85025000Y-109250000D03*
%TD*%
D17*
%TO.C,R701*%
X133750000Y-64575000D03*
X133750000Y-62925000D03*
%TD*%
D44*
%TO.C,J501*%
X70500000Y-51500000D03*
D45*
X72999999Y-51499999D03*
X75499999Y-51499999D03*
X77999999Y-51499999D03*
X80499999Y-51499999D03*
X82999999Y-51499999D03*
X85499999Y-51499999D03*
X87999999Y-51499999D03*
X90499999Y-51499999D03*
X92999999Y-51499999D03*
X95499999Y-51499999D03*
%TD*%
D51*
%TO.C,Y301*%
X146350000Y-101600000D03*
X146350000Y-99400000D03*
X144650000Y-99400000D03*
X144650000Y-101600000D03*
%TD*%
D37*
%TO.C,D501*%
X83000000Y-58500000D03*
X87000000Y-58500000D03*
%TD*%
D52*
%TO.C,C201*%
X65652651Y-92750000D03*
D53*
X62152651Y-92750000D03*
%TD*%
D39*
%TO.C,D101*%
X224937500Y-85825000D03*
X223062500Y-85825000D03*
%TD*%
D21*
%TO.C,U401*%
X201020000Y-125100000D03*
X198480000Y-125100000D03*
X198480000Y-131400000D03*
X201020000Y-131400000D03*
%TD*%
D17*
%TO.C,R603*%
X109500000Y-64575000D03*
X109500000Y-62925000D03*
%TD*%
%TO.C,R605*%
X103750000Y-64575000D03*
X103750000Y-62925000D03*
%TD*%
%TO.C,R702*%
X137500000Y-64575000D03*
X137500000Y-62925000D03*
%TD*%
D54*
%TO.C,C214*%
X97500000Y-115462500D03*
X97500000Y-118537500D03*
%TD*%
D17*
%TO.C,R103*%
X139000000Y-129075000D03*
X139000000Y-127425000D03*
%TD*%
D55*
%TO.C,Q201*%
X78050000Y-101280000D03*
X78050000Y-99000000D03*
D56*
X71750000Y-99000000D03*
D55*
X78050000Y-96720000D03*
%TD*%
D57*
%TO.C,J401*%
X187750000Y-140500000D03*
D45*
X185249999Y-140499999D03*
X182749999Y-140499999D03*
X180249999Y-140499999D03*
X177749999Y-140499999D03*
X175249999Y-140499999D03*
X172749999Y-140499999D03*
X170249999Y-140499999D03*
X167749999Y-140499999D03*
X165249999Y-140499999D03*
X162749999Y-140499999D03*
X160249999Y-140499999D03*
X157749999Y-140499999D03*
%TD*%
D33*
%TO.C,C104*%
X57450000Y-140750000D03*
X59000000Y-140750000D03*
%TD*%
D18*
%TO.C,R101*%
X226750000Y-85750000D03*
X226750000Y-87400000D03*
%TD*%
D42*
%TO.C,TP204*%
X92750000Y-100000000D03*
%TD*%
D25*
%TO.C,R201*%
X78750000Y-103500000D03*
X77100000Y-103500000D03*
%TD*%
D41*
%TO.C,U407*%
X161612500Y-132550000D03*
X161612500Y-133500000D03*
X161612500Y-134450000D03*
X163887500Y-134450000D03*
X163887500Y-133500000D03*
X163887500Y-132550000D03*
%TD*%
D17*
%TO.C,R801*%
X165500000Y-64575000D03*
X165500000Y-62925000D03*
%TD*%
%TO.C,R501*%
X70250000Y-64575000D03*
X70250000Y-62925000D03*
%TD*%
%TO.C,R109*%
X129750000Y-129075000D03*
X129750000Y-127425000D03*
%TD*%
%TO.C,R604*%
X113250000Y-64575000D03*
X113250000Y-62925000D03*
%TD*%
%TO.C,R305*%
X120250000Y-115325000D03*
X120250000Y-113675000D03*
%TD*%
%TO.C,R905*%
X199000000Y-64575000D03*
X199000000Y-62925000D03*
%TD*%
%TO.C,R901*%
X197250000Y-64575000D03*
X197250000Y-62925000D03*
%TD*%
D58*
%TO.C,L201*%
X88250000Y-120700000D03*
X88250000Y-124300000D03*
%TD*%
D17*
%TO.C,R804*%
X178500000Y-64575000D03*
X178500000Y-62925000D03*
%TD*%
D33*
%TO.C,C304*%
X137975000Y-104750000D03*
X139525000Y-104750000D03*
%TD*%
D17*
%TO.C,R704*%
X145000000Y-64575000D03*
X145000000Y-62925000D03*
%TD*%
%TO.C,R504*%
X81500000Y-64575000D03*
X81500000Y-62925000D03*
%TD*%
D44*
%TO.C,J701*%
X134000000Y-51500000D03*
D45*
X136499999Y-51499999D03*
X138999999Y-51499999D03*
X141499999Y-51499999D03*
X143999999Y-51499999D03*
X146499999Y-51499999D03*
X148999999Y-51499999D03*
X151499999Y-51499999D03*
X153999999Y-51499999D03*
X156499999Y-51499999D03*
X158999999Y-51499999D03*
%TD*%
D18*
%TO.C,R810*%
X185250000Y-62925000D03*
X185250000Y-64575000D03*
%TD*%
D44*
%TO.C,J801*%
X165750000Y-51500000D03*
D45*
X168249999Y-51499999D03*
X170749999Y-51499999D03*
X173249999Y-51499999D03*
X175749999Y-51499999D03*
X178249999Y-51499999D03*
X180749999Y-51499999D03*
X183249999Y-51499999D03*
X185749999Y-51499999D03*
X188249999Y-51499999D03*
X190749999Y-51499999D03*
%TD*%
D28*
%TO.C,H101*%
X56000000Y-46000000D03*
X56878680Y-43878680D03*
X56878680Y-48121320D03*
X59000000Y-43000000D03*
D29*
X59000000Y-46000000D03*
D28*
X59000000Y-49000000D03*
X61121320Y-43878680D03*
X61121320Y-48121320D03*
X62000000Y-46000000D03*
%TD*%
D47*
%TO.C,Q501*%
X91687500Y-59450000D03*
X91687500Y-57550000D03*
X89812500Y-58500000D03*
%TD*%
D17*
%TO.C,R907*%
X206500000Y-64575000D03*
X206500000Y-62925000D03*
%TD*%
D33*
%TO.C,C308*%
X137975000Y-103000000D03*
X139525000Y-103000000D03*
%TD*%
%TO.C,C207*%
X81725000Y-120750000D03*
X83275000Y-120750000D03*
%TD*%
D18*
%TO.C,R809*%
X187000000Y-62925000D03*
X187000000Y-64575000D03*
%TD*%
D17*
%TO.C,R506*%
X75750000Y-64575000D03*
X75750000Y-62925000D03*
%TD*%
%TO.C,R706*%
X139250000Y-64575000D03*
X139250000Y-62925000D03*
%TD*%
D30*
%TO.C,C107*%
X178750000Y-109475000D03*
X178750000Y-111025000D03*
%TD*%
D17*
%TO.C,R414*%
X169250000Y-129075000D03*
X169250000Y-127425000D03*
%TD*%
D37*
%TO.C,D201*%
X62000000Y-100750000D03*
X66000000Y-100750000D03*
%TD*%
D17*
%TO.C,R306*%
X118500000Y-115325000D03*
X118500000Y-113675000D03*
%TD*%
%TO.C,R904*%
X208500000Y-64575000D03*
X208500000Y-62925000D03*
%TD*%
%TO.C,R903*%
X204750000Y-64575000D03*
X204750000Y-62925000D03*
%TD*%
D50*
%TO.C,R404*%
X185925000Y-122750000D03*
X187575000Y-122750000D03*
%TD*%
D28*
%TO.C,H104*%
X56000000Y-146000000D03*
X56878680Y-143878680D03*
X56878680Y-148121320D03*
X59000000Y-143000000D03*
D29*
X59000000Y-146000000D03*
D28*
X59000000Y-149000000D03*
X61121320Y-143878680D03*
X61121320Y-148121320D03*
X62000000Y-146000000D03*
%TD*%
D18*
%TO.C,R205*%
X76750000Y-112675000D03*
X76750000Y-114325000D03*
%TD*%
D17*
%TO.C,R705*%
X135500000Y-64575000D03*
X135500000Y-62925000D03*
%TD*%
D47*
%TO.C,Q801*%
X186937500Y-59450000D03*
X186937500Y-57550000D03*
X185062500Y-58500000D03*
%TD*%
D17*
%TO.C,R410*%
X171250000Y-129075000D03*
X171250000Y-127425000D03*
%TD*%
D21*
%TO.C,U404*%
X187520000Y-125100000D03*
X184980000Y-125100000D03*
X184980000Y-131400000D03*
X187520000Y-131400000D03*
%TD*%
D17*
%TO.C,R408*%
X163750000Y-129075000D03*
X163750000Y-127425000D03*
%TD*%
D21*
%TO.C,U402*%
X196520000Y-125100000D03*
X193980000Y-125100000D03*
X193980000Y-131400000D03*
X196520000Y-131400000D03*
%TD*%
D19*
%TO.C,C106*%
X193000000Y-88025000D03*
X193000000Y-86475000D03*
%TD*%
D17*
%TO.C,R602*%
X105750000Y-64575000D03*
X105750000Y-62925000D03*
%TD*%
%TO.C,R412*%
X176750000Y-129075000D03*
X176750000Y-127425000D03*
%TD*%
D21*
%TO.C,U403*%
X192020000Y-125100000D03*
X189480000Y-125100000D03*
X189480000Y-131400000D03*
X192020000Y-131400000D03*
%TD*%
D17*
%TO.C,R607*%
X111250000Y-64575000D03*
X111250000Y-62925000D03*
%TD*%
%TO.C,R805*%
X167250000Y-64575000D03*
X167250000Y-62925000D03*
%TD*%
D18*
%TO.C,R609*%
X123500000Y-62925000D03*
X123500000Y-64575000D03*
%TD*%
D17*
%TO.C,R703*%
X141250000Y-64575000D03*
X141250000Y-62925000D03*
%TD*%
%TO.C,R707*%
X143000000Y-64575000D03*
X143000000Y-62925000D03*
%TD*%
%TO.C,R107*%
X137250000Y-129075000D03*
X137250000Y-127425000D03*
%TD*%
D47*
%TO.C,Q601*%
X123437500Y-59450000D03*
X123437500Y-57550000D03*
X121562500Y-58500000D03*
%TD*%
D17*
%TO.C,R808*%
X176750000Y-64575000D03*
X176750000Y-62925000D03*
%TD*%
D30*
%TO.C,C108*%
X177000000Y-109475000D03*
X177000000Y-111025000D03*
%TD*%
D59*
%TO.C,L202*%
X102337500Y-126500000D03*
X104162500Y-126500000D03*
%TD*%
D19*
%TO.C,C210*%
X92000000Y-124525000D03*
X92000000Y-122975000D03*
%TD*%
D17*
%TO.C,R902*%
X201000000Y-64575000D03*
X201000000Y-62925000D03*
%TD*%
D38*
%TO.C,C103*%
X235550000Y-140750000D03*
X234000000Y-140750000D03*
%TD*%
D28*
%TO.C,H102*%
X231000000Y-46000000D03*
X231878680Y-43878680D03*
X231878680Y-48121320D03*
X234000000Y-43000000D03*
D29*
X234000000Y-46000000D03*
D28*
X234000000Y-49000000D03*
X236121320Y-43878680D03*
X236121320Y-48121320D03*
X237000000Y-46000000D03*
%TD*%
D18*
%TO.C,R610*%
X121750000Y-62925000D03*
X121750000Y-64575000D03*
%TD*%
D38*
%TO.C,C305*%
X136275000Y-104750000D03*
X134725000Y-104750000D03*
%TD*%
D41*
%TO.C,U103*%
X135112500Y-132550000D03*
X135112500Y-133500000D03*
X135112500Y-134450000D03*
X137387500Y-134450000D03*
X137387500Y-133500000D03*
X137387500Y-132550000D03*
%TD*%
D42*
%TO.C,TP203*%
X92750000Y-102750000D03*
%TD*%
D37*
%TO.C,D801*%
X178250000Y-58500000D03*
X182250000Y-58500000D03*
%TD*%
D17*
%TO.C,R106*%
X141000000Y-129075000D03*
X141000000Y-127425000D03*
%TD*%
D42*
%TO.C,TP201*%
X92750000Y-97250000D03*
%TD*%
D17*
%TO.C,R413*%
X173000000Y-129075000D03*
X173000000Y-127425000D03*
%TD*%
D33*
%TO.C,C202*%
X83475000Y-105750000D03*
X85025000Y-105750000D03*
%TD*%
M02*
