%TF.GenerationSoftware,KiCad,Pcbnew,(6.99.0-4444-ge62463b52b)*%
%TF.CreationDate,2022-12-13T19:15:09+01:00*%
%TF.ProjectId,bd845-pwb,62643834-352d-4707-9762-2e6b69636164,rev?*%
%TF.SameCoordinates,Original*%
%TF.FileFunction,Soldermask,Bot*%
%TF.FilePolarity,Negative*%
%FSLAX46Y46*%
G04 Gerber Fmt 4.6, Leading zero omitted, Abs format (unit mm)*
G04 Created by KiCad (PCBNEW (6.99.0-4444-ge62463b52b)) date 2022-12-13 19:15:09*
%MOMM*%
%LPD*%
G01*
G04 APERTURE LIST*
G04 Aperture macros list*
%AMRoundRect*
0 Rectangle with rounded corners*
0 $1 Rounding radius*
0 $2 $3 $4 $5 $6 $7 $8 $9 X,Y pos of 4 corners*
0 Add a 4 corners polygon primitive as box body*
4,1,4,$2,$3,$4,$5,$6,$7,$8,$9,$2,$3,0*
0 Add four circle primitives for the rounded corners*
1,1,$1+$1,$2,$3*
1,1,$1+$1,$4,$5*
1,1,$1+$1,$6,$7*
1,1,$1+$1,$8,$9*
0 Add four rect primitives between the rounded corners*
20,1,$1+$1,$2,$3,$4,$5,0*
20,1,$1+$1,$4,$5,$6,$7,0*
20,1,$1+$1,$6,$7,$8,$9,0*
20,1,$1+$1,$8,$9,$2,$3,0*%
G04 Aperture macros list end*
%ADD10C,0.000000*%
%ADD11C,2.800000*%
%ADD12RoundRect,0.300001X-1.099999X1.099999X-1.099999X-1.099999X1.099999X-1.099999X1.099999X1.099999X0*%
%ADD13C,1.090600*%
%ADD14RoundRect,0.050000X0.800000X-0.800000X0.800000X0.800000X-0.800000X0.800000X-0.800000X-0.800000X0*%
%ADD15O,1.700000X1.700000*%
%ADD16C,1.000000*%
%ADD17C,8.100000*%
%ADD18RoundRect,0.050000X-0.850000X-0.850000X0.850000X-0.850000X0.850000X0.850000X-0.850000X0.850000X0*%
%ADD19O,1.800000X1.800000*%
%ADD20RoundRect,0.300000X-0.600000X-0.725000X0.600000X-0.725000X0.600000X0.725000X-0.600000X0.725000X0*%
%ADD21O,1.800000X2.050000*%
%ADD22RoundRect,0.050000X0.800000X0.800000X-0.800000X0.800000X-0.800000X-0.800000X0.800000X-0.800000X0*%
%ADD23C,1.700000*%
%ADD24RoundRect,0.300000X0.600000X0.725000X-0.600000X0.725000X-0.600000X-0.725000X0.600000X-0.725000X0*%
G04 APERTURE END LIST*
D10*
G36*
X59000000Y-138250000D02*
G01*
X59000000Y-138250000D01*
G75*
G02*
X66750000Y-146000000I0J-7750000D01*
G01*
X66750000Y-150600000D01*
X65250000Y-150600000D01*
X65250000Y-146000000D01*
G75*
G03*
X59000000Y-139750000I-6250000J0D01*
G01*
X54400000Y-139750000D01*
X54400000Y-138250000D01*
X59000000Y-138250000D01*
G37*
G36*
X238600000Y-139750000D02*
G01*
X234000000Y-139750000D01*
X233754532Y-139752409D01*
X233265108Y-139790928D01*
X232780215Y-139867727D01*
X232302843Y-139982335D01*
X231835934Y-140134042D01*
X231382367Y-140321916D01*
X230944939Y-140544797D01*
X230526347Y-140801311D01*
X230129170Y-141089876D01*
X229755859Y-141408714D01*
X229408714Y-141755859D01*
X229089876Y-142129170D01*
X228801311Y-142526347D01*
X228544797Y-142944939D01*
X228321916Y-143382367D01*
X228134042Y-143835934D01*
X227982335Y-144302843D01*
X227867727Y-144780215D01*
X227790928Y-145265108D01*
X227752409Y-145754532D01*
X227750000Y-146000000D01*
X227750000Y-150600000D01*
X226250000Y-150600000D01*
X226250000Y-146000000D01*
X226252412Y-145723294D01*
X226291891Y-145171293D01*
X226370650Y-144623514D01*
X226488286Y-144082749D01*
X226644200Y-143551755D01*
X226837598Y-143033236D01*
X227067493Y-142529835D01*
X227332715Y-142044117D01*
X227631912Y-141578557D01*
X227963559Y-141135528D01*
X228325967Y-140717288D01*
X228717288Y-140325967D01*
X229135528Y-139963559D01*
X229578557Y-139631912D01*
X230044117Y-139332715D01*
X230529835Y-139067493D01*
X231033236Y-138837598D01*
X231551755Y-138644200D01*
X232082749Y-138488286D01*
X232623514Y-138370650D01*
X233171293Y-138291891D01*
X233723294Y-138252412D01*
X234000000Y-138250000D01*
X238600000Y-138250000D01*
X238600000Y-139750000D01*
G37*
G36*
X226250000Y-150600000D02*
G01*
X66750000Y-150600000D01*
X66750000Y-149100000D01*
X226250000Y-149100000D01*
X226250000Y-150600000D01*
G37*
G36*
X238600000Y-138250000D02*
G01*
X237100000Y-138250000D01*
X237100000Y-53750000D01*
X238600000Y-53750000D01*
X238600000Y-138250000D01*
G37*
G36*
X227750000Y-46000000D02*
G01*
X227750000Y-46000000D01*
G75*
G03*
X234000000Y-52250000I6250000J0D01*
G01*
X238600000Y-52250000D01*
X238600000Y-53750000D01*
X234000000Y-53750000D01*
G75*
G02*
X226250000Y-46000000I0J7750000D01*
G01*
X226250000Y-41400000D01*
X227750000Y-41400000D01*
X227750000Y-46000000D01*
G37*
G36*
X226250000Y-42900000D02*
G01*
X66750000Y-42900000D01*
X66750000Y-41400000D01*
X226250000Y-41400000D01*
X226250000Y-42900000D01*
G37*
G36*
X66750000Y-46000000D02*
G01*
X66747588Y-46276706D01*
X66708109Y-46828707D01*
X66629350Y-47376486D01*
X66511714Y-47917251D01*
X66355800Y-48448245D01*
X66162402Y-48966764D01*
X65932507Y-49470165D01*
X65667285Y-49955883D01*
X65368088Y-50421443D01*
X65036441Y-50864472D01*
X64674033Y-51282712D01*
X64282712Y-51674033D01*
X63864472Y-52036441D01*
X63421443Y-52368088D01*
X62955883Y-52667285D01*
X62470165Y-52932507D01*
X61966764Y-53162402D01*
X61448245Y-53355800D01*
X60917251Y-53511714D01*
X60376486Y-53629350D01*
X59828707Y-53708109D01*
X59276706Y-53747588D01*
X59000000Y-53750000D01*
X54400000Y-53750000D01*
X54400000Y-52250000D01*
X59000000Y-52250000D01*
X59245468Y-52247591D01*
X59734892Y-52209072D01*
X60219785Y-52132273D01*
X60697157Y-52017665D01*
X61164066Y-51865958D01*
X61617633Y-51678084D01*
X62055061Y-51455203D01*
X62473653Y-51198689D01*
X62870830Y-50910124D01*
X63244141Y-50591286D01*
X63591286Y-50244141D01*
X63910124Y-49870830D01*
X64198689Y-49473653D01*
X64455203Y-49055061D01*
X64678084Y-48617633D01*
X64865958Y-48164066D01*
X65017665Y-47697157D01*
X65132273Y-47219785D01*
X65209072Y-46734892D01*
X65247591Y-46245468D01*
X65250000Y-46000000D01*
X65250000Y-41400000D01*
X66750000Y-41400000D01*
X66750000Y-46000000D01*
G37*
G36*
X55900000Y-138250000D02*
G01*
X54400000Y-138250000D01*
X54400000Y-53750000D01*
X55900000Y-53750000D01*
X55900000Y-138250000D01*
G37*
D11*
%TO.C,J101*%
X66000000Y-118380000D03*
X66000000Y-114420000D03*
X66000000Y-110460000D03*
D12*
X66000000Y-106500000D03*
%TD*%
D13*
%TO.C,J301*%
X117710000Y-123250000D03*
X122790000Y-122234000D03*
X122790000Y-124266000D03*
%TD*%
D14*
%TO.C,SW101*%
X132430000Y-145100000D03*
D15*
X134969999Y-145099999D03*
X137509999Y-145099999D03*
X140049999Y-145099999D03*
X140049999Y-137479999D03*
X137509999Y-137479999D03*
X134969999Y-137479999D03*
X132429999Y-137479999D03*
%TD*%
D16*
%TO.C,H103*%
X231000000Y-146000000D03*
X231878680Y-143878680D03*
X231878680Y-148121320D03*
X234000000Y-143000000D03*
D17*
X234000000Y-146000000D03*
D16*
X234000000Y-149000000D03*
X236121320Y-143878680D03*
X236121320Y-148121320D03*
X237000000Y-146000000D03*
%TD*%
D18*
%TO.C,J302*%
X114500000Y-113380000D03*
D19*
X114499999Y-115919999D03*
X114499999Y-118459999D03*
X114499999Y-120999999D03*
X114499999Y-123539999D03*
%TD*%
D20*
%TO.C,J601*%
X102250000Y-51500000D03*
D21*
X104749999Y-51499999D03*
X107249999Y-51499999D03*
X109749999Y-51499999D03*
X112249999Y-51499999D03*
X114749999Y-51499999D03*
X117249999Y-51499999D03*
X119749999Y-51499999D03*
X122249999Y-51499999D03*
X124749999Y-51499999D03*
X127249999Y-51499999D03*
%TD*%
D20*
%TO.C,J901*%
X197500000Y-51500000D03*
D21*
X199999999Y-51499999D03*
X202499999Y-51499999D03*
X204999999Y-51499999D03*
X207499999Y-51499999D03*
X209999999Y-51499999D03*
X212499999Y-51499999D03*
X214999999Y-51499999D03*
X217499999Y-51499999D03*
X219999999Y-51499999D03*
X222499999Y-51499999D03*
%TD*%
D20*
%TO.C,J501*%
X70500000Y-51500000D03*
D21*
X72999999Y-51499999D03*
X75499999Y-51499999D03*
X77999999Y-51499999D03*
X80499999Y-51499999D03*
X82999999Y-51499999D03*
X85499999Y-51499999D03*
X87999999Y-51499999D03*
X90499999Y-51499999D03*
X92999999Y-51499999D03*
X95499999Y-51499999D03*
%TD*%
D22*
%TO.C,C201*%
X65652651Y-92750000D03*
D23*
X62152651Y-92750000D03*
%TD*%
D24*
%TO.C,J401*%
X187750000Y-140500000D03*
D21*
X185249999Y-140499999D03*
X182749999Y-140499999D03*
X180249999Y-140499999D03*
X177749999Y-140499999D03*
X175249999Y-140499999D03*
X172749999Y-140499999D03*
X170249999Y-140499999D03*
X167749999Y-140499999D03*
X165249999Y-140499999D03*
X162749999Y-140499999D03*
X160249999Y-140499999D03*
X157749999Y-140499999D03*
%TD*%
D20*
%TO.C,J701*%
X134000000Y-51500000D03*
D21*
X136499999Y-51499999D03*
X138999999Y-51499999D03*
X141499999Y-51499999D03*
X143999999Y-51499999D03*
X146499999Y-51499999D03*
X148999999Y-51499999D03*
X151499999Y-51499999D03*
X153999999Y-51499999D03*
X156499999Y-51499999D03*
X158999999Y-51499999D03*
%TD*%
D20*
%TO.C,J801*%
X165750000Y-51500000D03*
D21*
X168249999Y-51499999D03*
X170749999Y-51499999D03*
X173249999Y-51499999D03*
X175749999Y-51499999D03*
X178249999Y-51499999D03*
X180749999Y-51499999D03*
X183249999Y-51499999D03*
X185749999Y-51499999D03*
X188249999Y-51499999D03*
X190749999Y-51499999D03*
%TD*%
D16*
%TO.C,H101*%
X56000000Y-46000000D03*
X56878680Y-43878680D03*
X56878680Y-48121320D03*
X59000000Y-43000000D03*
D17*
X59000000Y-46000000D03*
D16*
X59000000Y-49000000D03*
X61121320Y-43878680D03*
X61121320Y-48121320D03*
X62000000Y-46000000D03*
%TD*%
%TO.C,H104*%
X56000000Y-146000000D03*
X56878680Y-143878680D03*
X56878680Y-148121320D03*
X59000000Y-143000000D03*
D17*
X59000000Y-146000000D03*
D16*
X59000000Y-149000000D03*
X61121320Y-143878680D03*
X61121320Y-148121320D03*
X62000000Y-146000000D03*
%TD*%
%TO.C,H102*%
X231000000Y-46000000D03*
X231878680Y-43878680D03*
X231878680Y-48121320D03*
X234000000Y-43000000D03*
D17*
X234000000Y-46000000D03*
D16*
X234000000Y-49000000D03*
X236121320Y-43878680D03*
X236121320Y-48121320D03*
X237000000Y-46000000D03*
%TD*%
M02*
